<svg xmlns="http://www.w3.org/2000/svg" width="20" height="20" viewBox="0 0 20 20">
  <g id="그룹_25940" data-name="그룹 25940" transform="translate(-1427 -29)">
    <rect id="사각형_8547" data-name="사각형 8547" width="20" height="20" transform="translate(1427 29)" fill="#fff"/>
    <path id="calendar" d="M206,257h-2a1,1,0,0,0-2,0h-4a1,1,0,0,0-2,0h-2a2,2,0,0,0-2,2v11a2,2,0,0,0,2,2h12a2,2,0,0,0,2-2V259A2,2,0,0,0,206,257Zm-12,2h2a1,1,0,0,0,2,0h4a1,1,0,0,0,2,0h2v2H194Zm0,11v-7h12v7Z" transform="translate(1237 -225)" fill="#333" stroke="#fff" stroke-width="1" fill-rule="evenodd"/>
  </g>
</svg>
