<svg xmlns="http://www.w3.org/2000/svg" width="22" height="22" viewBox="0 0 22 22">
  <g id="그룹_26202" data-name="그룹 26202" transform="translate(-1691 -118)">
    <path id="패스_69170" data-name="패스 69170" d="M212.374,610.005v.561c-.415.863-1.229.747-2.029.746v.641q0,6.012,0,12.024a3.04,3.04,0,0,1-3.317,3.29q-4.742.007-9.485,0a4.322,4.322,0,0,1-1.072-.113,2.99,2.99,0,0,1-2.261-3.157q-.008-6.035,0-12.07V611.3c-.341,0-.606,0-.871,0a1.025,1.025,0,1,1,.005-2.035c.755-.008,1.51,0,2.265,0h1.639c0-.419-.024-.778,0-1.133a2.9,2.9,0,0,1,2.845-2.819c1.506-.064,3.02-.056,4.526.017a2.878,2.878,0,0,1,2.667,2.638c.039.415.043.834.065,1.3,1.2,0,2.375.027,3.55-.011A1.44,1.44,0,0,1,212.374,610.005Zm-4.058,1.335H196.234v.5q0,6.057,0,12.113c0,.945.36,1.307,1.3,1.307h9.482c.937,0,1.3-.366,1.3-1.31q0-6.057,0-12.113Zm-3.022-2.082c0-.325.016-.645,0-.963a1,1,0,0,0-1.035-1c-1.32-.016-2.64-.014-3.959,0a.956.956,0,0,0-1.005.813,7.992,7.992,0,0,0-.011,1.149Z" transform="translate(1499.811 -487.27)" fill="#fff"/>
    <rect id="사각형_8716" data-name="사각형 8716" width="22" height="22" transform="translate(1691 118)" fill="none"/>
  </g>
</svg>
