<svg xmlns="http://www.w3.org/2000/svg" width="64" height="69" viewBox="0 0 64 69">
  <path id="패스_69276" data-name="패스 69276" d="M147.534,215.072a31.046,31.046,0,0,1,10.914,20.852,32,32,0,1,1-42.579-26.963c.55-.2,1.114-.356,1.673-.527a.608.608,0,0,0,.492-.7c-.019-1.181-.017-2.363,0-3.544.018-1.52.869-1.881,2.656-1.881,4.09,0,7.934.014,11.875.014,1.736,0,2.631.353,2.652,1.829.017,1.155-.019,2.311.022,3.465a.917.917,0,0,0,.4.7q1.1.452,2.2.9a35.1,35.1,0,0,1,9.7,5.868Zm-20.274,50a25.835,25.835,0,1,0-26.372-24.8A25.873,25.873,0,0,0,127.26,265.073Zm10.933-25.962q5.022,0,10.045,0c1.263,0,1.734-.5,1.559-1.759a35.691,35.691,0,0,0-.762-4.249,23.2,23.2,0,0,0-20.293-17.108c-1.633-.147-2.095.269-2.1,1.893q0,9.643,0,19.285c0,1.643.288,1.942,1.894,1.943q4.826,0,9.653,0Z" transform="translate(-94.629 -202.304)"/>
</svg>
