<svg xmlns="http://www.w3.org/2000/svg" width="20" height="20" viewBox="0 0 20 20">
  <g id="그룹_25745" data-name="그룹 25745" transform="translate(-203 -100)">
    <path id="menu_1" data-name="menu 1" d="M26.612,16.433H13.278a1.329,1.329,0,0,1-1.333-1.323h0a1.328,1.328,0,0,1,1.333-1.322H26.611a1.327,1.327,0,0,1,1.334,1.322h0a1.329,1.329,0,0,1-1.333,1.323Zm0,5.289H13.278A1.329,1.329,0,0,1,11.945,20.4h0a1.328,1.328,0,0,1,1.333-1.322H26.611A1.327,1.327,0,0,1,27.945,20.4h0a1.329,1.329,0,0,1-1.333,1.323Zm0,5.289H13.278a1.329,1.329,0,0,1-1.333-1.323h0a1.328,1.328,0,0,1,1.333-1.322H26.611a1.327,1.327,0,0,1,1.334,1.322h0a1.329,1.329,0,0,1-1.333,1.323Z" transform="translate(193.056 89.601)" fill="#fff" fill-rule="evenodd"/>
    <rect id="사각형_8293" data-name="사각형 8293" width="20" height="20" transform="translate(203 100)" fill="none"/>
  </g>
</svg>
