<svg id="icon_service" xmlns="http://www.w3.org/2000/svg" width="20" height="20" viewBox="0 0 20 20">
  <rect id="사각형_7914" data-name="사각형 7914" width="20" height="20" fill="none"/>
  <path id="headphones_1" d="M141.787,134.441a5.992,5.992,0,0,0-11.575,0A3.988,3.988,0,0,0,132,142a2,2,0,0,0,2-2v-4a2,2,0,0,0-1.486-1.925,3.966,3.966,0,0,1,6.972,0A2,2,0,0,0,138,136v4a2,2,0,0,0,2,2,3.988,3.988,0,0,0,1.787-7.559ZM132,140a2,2,0,0,1,0-4Zm8,0v-4a2,2,0,0,1,0,4Z" transform="translate(-125.998 -126.001)" fill="#fff" stroke="#11284f" stroke-width="1" fill-rule="evenodd"/>
</svg>
