<svg xmlns="http://www.w3.org/2000/svg" width="20" height="20" viewBox="0 0 20 20">
  <g id="그룹_27250" data-name="그룹 27250" transform="translate(-240 -87)">
    <path id="패스_69267" data-name="패스 69267" d="M279.379,447.933l1.488-1.586a2.094,2.094,0,0,0,.407-2.179,1.879,1.879,0,0,0-1.734-1.235h-2.816a1.942,1.942,0,0,0-1.877-2h-3.754a1.723,1.723,0,0,1-1.877,0h-.939a1.942,1.942,0,0,0-1.877,2v12a1.942,1.942,0,0,0,1.877,2h.939a1.941,1.941,0,0,0,1.877-2v-4h1.877a1.942,1.942,0,0,0,1.877,2h4.693a1.879,1.879,0,0,0,1.734-1.234,2.1,2.1,0,0,0-.407-2.18Zm-10.124,7.807h-1.008a.664.664,0,0,1-.665-.664V442.79a.665.665,0,0,1,.665-.664h1.008a.664.664,0,0,1,.664.664v12.286A.664.664,0,0,1,269.255,455.74Zm4.889-4.752v-1.252H271.53a.437.437,0,0,1-.437-.436v-6.737a.437.437,0,0,1,.437-.437h3.584a.437.437,0,0,1,.437.437v1.555h4.239a.78.78,0,0,1,.608,1.269l-2.221,2.591,2.076,2.465a.78.78,0,0,1-.581,1.3H274.9A.755.755,0,0,1,274.144,450.988Z" transform="translate(-23.909 -351.933)" fill="#fff"/>
    <rect id="사각형_9034" data-name="사각형 9034" width="20" height="20" transform="translate(240 87)" fill="none"/>
  </g>
</svg>
