<svg xmlns="http://www.w3.org/2000/svg" width="20" height="20" viewBox="0 0 20 20">
  <g id="그룹_26371" data-name="그룹 26371" transform="translate(7183 4959)">
    <rect id="사각형_8802" data-name="사각형 8802" width="20" height="20" transform="translate(-7183 -4959)" fill="none"/>
    <path id="패스_69243" data-name="패스 69243" d="M4.246,18.929A1.24,1.24,0,0,1,3,17.694V11.186A3.7,3.7,0,0,1,6.718,7.5h5.974a.591.591,0,0,1,.591.593l-.007,2.149h1.975a.575.575,0,0,1,.412.174l3.153,3.231L19,14.1v4.263a.565.565,0,0,1-.565.565H4.246Zm13.611-1.574V14.615a.638.638,0,0,0-.177-.441l-2.488-2.6a.629.629,0,0,0-.454-.193H13.286V13.31a.507.507,0,0,1-.491.54H12.7a.521.521,0,0,1-.565-.56l0-2.066.006-1.946a.634.634,0,0,0-.634-.636H7.02A2.877,2.877,0,0,0,4.143,11.52v5.819a.446.446,0,0,0,.447.447H17.426A.432.432,0,0,0,17.857,17.354ZM7.232,18.929H5.463a1.77,1.77,0,1,0,3.539,0Zm6.7,0h-1.77a1.77,1.77,0,1,0,3.539,0Z" transform="translate(-7184 -4963.1)" fill="#fff"/>
  </g>
</svg>
