<svg xmlns="http://www.w3.org/2000/svg" width="20" height="20" viewBox="0 0 20 20">
  <g id="그룹_25741" data-name="그룹 25741" transform="translate(-324 -117)">
    <rect id="사각형_8289" data-name="사각형 8289" width="20" height="20" transform="translate(324 117)" fill="none"/>
    <path id="home_4_1" d="M623.109,612.336l-6-4a2,2,0,0,0-2.218,0l-6,4A2,2,0,0,0,608,614v8a2,2,0,0,0,2,2h12a2,2,0,0,0,2-2v-8a2,2,0,0,0-.891-1.664ZM614,622v-4h4v4Zm8,0h-2v-4a2,2,0,0,0-2-2h-4a2,2,0,0,0-2,2v4h-2v-8l6-4,6,4Z" transform="translate(-282 -489)" fill="#acc3f6" fill-rule="evenodd"/>
  </g>
</svg>
