<svg xmlns="http://www.w3.org/2000/svg" width="20" height="20" viewBox="0 0 20 20">
  <g id="그룹_25771" data-name="그룹 25771" transform="translate(-220 -20)">
    <path id="headphones_1" d="M141.787,134.441h0a5.992,5.992,0,0,0-11.575,0A3.988,3.988,0,0,0,132,142a2,2,0,0,0,2-2v-4a2,2,0,0,0-1.486-1.925,3.966,3.966,0,0,1,6.972,0A2,2,0,0,0,138,136v4a2,2,0,0,0,2,2,3.988,3.988,0,0,0,1.787-7.559ZM132,140a2,2,0,0,1,0-4Zm8,0v-4a2.144,2.144,0,0,1,1.672.9A1.752,1.752,0,0,1,142,138,2,2,0,0,1,140,140Z" transform="translate(94 -106.001)" fill="#acc3f6" fill-rule="evenodd"/>
    <rect id="사각형_8295" data-name="사각형 8295" width="20" height="20" transform="translate(220 20)" fill="none"/>
  </g>
</svg>
