<svg xmlns="http://www.w3.org/2000/svg" width="20" height="20" viewBox="0 0 20 20">
  <g id="그룹_26173" data-name="그룹 26173" transform="translate(-907 -232)">
    <rect id="사각형_8683" data-name="사각형 8683" width="20" height="20" transform="translate(907 232)" fill="none"/>
    <path id="패스_69158" data-name="패스 69158" d="M88.66,295.435a1.5,1.5,0,0,0-1.7.575,1.393,1.393,0,0,0,.1,1.8,1.2,1.2,0,0,1,.368,1.079c0,.07,0,.141,0,.21a.76.76,0,1,0,1.521,0c.014-.233-.016-.47.013-.7a.65.65,0,0,1,.182-.369,1.553,1.553,0,0,0,.542-1.134A1.483,1.483,0,0,0,88.66,295.435Zm-.441-3.059h5.887a1.493,1.493,0,0,1,1.582,1.578q.008,3.662,0,7.323a1.517,1.517,0,0,1-1.631,1.577c-1.787.007-3.574,0-5.361,0q-3.119,0-6.237,0a1.552,1.552,0,0,1-1.759-1.766c0-2.348.016-4.7-.008-7.043a1.6,1.6,0,0,1,1.676-1.684C84.317,292.4,86.268,292.375,88.219,292.376Zm2.831-5.894a5.254,5.254,0,0,0-8.059,5.133h1.492a4.089,4.089,0,0,1,.812-3.077,3.64,3.64,0,0,1,2.865-1.38,3.584,3.584,0,0,1,2.421.855,3.946,3.946,0,0,1,1.327,3.6h1.5A5.3,5.3,0,0,0,91.05,286.482Z" transform="translate(828.809 -52.248)" fill="#5786ed"/>
  </g>
</svg>
