<svg xmlns="http://www.w3.org/2000/svg" width="25" height="25" viewBox="0 0 25 25">
  <g id="그룹_25978" data-name="그룹 25978" transform="translate(-1722 -118)">
    <path id="map" d="M435.277,224.221a1.256,1.256,0,0,0-1.216-.05l-4.506,2.234-6.861-2.273h-.009l-.081-.035-.149-.037a1.53,1.53,0,0,0-.248-.025,1.126,1.126,0,0,0-.286.037c-.034.009-.06.029-.092.04a1.23,1.23,0,0,0-.2.083c-.037.02-.082.029-.124.051l-4.828,2.4a1.207,1.207,0,0,0-.683,1.1v14.828a1.231,1.231,0,0,0,.583,1.05,1.259,1.259,0,0,0,.658.186,1.278,1.278,0,0,0,.559-.137l4.506-2.234,6.951,2.311a1.275,1.275,0,0,0,.956-.074l4.965-2.471a1.22,1.22,0,0,0,.683-1.1V225.271A1.233,1.233,0,0,0,435.277,224.221Zm-16.793,4.287,2.482-1.241v12.061l-2.482,1.241Zm4.965-1.519,4.965,1.643v12.221l-4.965-1.643Zm9.93,12.345-2.482,1.241V228.514l2.482-1.241Z" transform="translate(1308.488 -103.467)" fill="#939393" stroke="#f7f7f7" stroke-width="1" fill-rule="evenodd"/>
    <rect id="사각형_8561" data-name="사각형 8561" width="25" height="25" transform="translate(1722 118)" fill="none"/>
  </g>
</svg>
