<svg xmlns="http://www.w3.org/2000/svg" width="18" height="18" viewBox="0 0 18 18">
  <g id="그룹_27430" data-name="그룹 27430" transform="translate(-570 -281)">
    <g id="Group_26152" data-name="Group 26152" transform="translate(571.5 283)">
      <path id="Path_69153" data-name="Path 69153" d="M185.085,595.317c-.363-.19-.705-.377-1.053-.549a.586.586,0,0,0-.768.12.575.575,0,0,0,.2.872c.777.412,1.556.82,2.341,1.218a.57.57,0,0,0,.886-.318q.467-1.119.92-2.244a.574.574,0,0,0-.294-.757l-.033-.013a.587.587,0,0,0-.759.332l-.006.016-.172.426-.184.443-.1-.193a7.194,7.194,0,0,0-3.141-3.121,7.092,7.092,0,0,0-8.553,1.523,6.933,6.933,0,0,0,.379,9.51,7.154,7.154,0,0,0,10.1.131l.123-.123a10.06,10.06,0,0,0,.958-1.268.551.551,0,0,0-.154-.765c-.014-.009-.027-.018-.042-.025a.574.574,0,0,0-.789.184l-.017.027a5.859,5.859,0,0,1-6.5,2.679,5.986,5.986,0,0,1-4.44-7.213c.034-.142.073-.283.118-.422a5.819,5.819,0,0,1,7.394-3.6l.086.03a5.96,5.96,0,0,1,3.443,2.949c.016.032.032.064.047.1A.361.361,0,0,1,185.085,595.317Z" transform="translate(-172.663 -590.737)" fill="#717171"/>
    </g>
    <rect id="사각형_9084" data-name="사각형 9084" width="18" height="18" transform="translate(570 281)" fill="none"/>
  </g>
</svg>
