<svg xmlns="http://www.w3.org/2000/svg" width="20" height="20" viewBox="0 0 20 20">
  <g id="그룹_26312" data-name="그룹 26312" transform="translate(-1447 -2733)">
    <rect id="사각형_8770" data-name="사각형 8770" width="20" height="20" transform="translate(1447 2733)" fill="none"/>
    <g id="그룹_26206" data-name="그룹 26206" transform="translate(1258.169 2299.551)">
      <g id="Group_26177" data-name="Group 26177" transform="translate(189.831 434.449)">
        <rect id="Rectangle_8683" data-name="Rectangle 8683" width="17.999" height="17.999" transform="translate(0 0)" fill="none"/>
      </g>
      <g id="그룹_26208" data-name="그룹 26208" transform="translate(189.831 434.449)">
        <g id="Group_26177-2" data-name="Group 26177" transform="translate(0 0)">
          <rect id="Rectangle_8683-2" data-name="Rectangle 8683" width="17.999" height="17.999" fill="none"/>
        </g>
        <path id="패스_69174" data-name="패스 69174" d="M198.992,448.118a10.3,10.3,0,0,1-9.024-5.405.788.788,0,0,1,.007-.894c2.326-3.781,5.549-5.635,9.66-5.335a10.074,10.074,0,0,1,8.007,5.189.978.978,0,0,1-.007,1.167A10.382,10.382,0,0,1,198.992,448.118Zm3.34-6.4a3.506,3.506,0,0,0-3.958-2.941,3.443,3.443,0,0,0-3.024,3.848,3.491,3.491,0,0,0,3.46,2.97,3.684,3.684,0,0,0,3.523-3.852v-.025Z" transform="translate(-189.833 -433.28)" fill="#a6a6a6"/>
      </g>
    </g>
  </g>
</svg>
