<svg xmlns="http://www.w3.org/2000/svg" width="26" height="26" viewBox="0 0 26 26">
  <g id="그룹_26439" data-name="그룹 26439" transform="translate(-415 -531)">
    <g id="그룹_26438" data-name="그룹 26438" transform="translate(409.141 518.23)">
      <g id="Group_26259" data-name="Group 26259">
        <path id="Path_69179" data-name="Path 69179" d="M29.9,20.442l-8.61-3.349a.334.334,0,0,0-.241,0l-8.61,3.349a.332.332,0,0,0-.211.309V30.8a.332.332,0,0,0,.211.309l8.61,3.349a.334.334,0,0,0,.241,0l8.61-3.349a.332.332,0,0,0,.211-.309V20.751A.332.332,0,0,0,29.9,20.442Zm-.451.56-8.279,3.22-4.541-1.766,7.826-3.033a2.24,2.24,0,0,0,.44-.248l4.554,1.8Zm-8.279-3.245,2.9,1.127L15.714,22.1,12.894,21v-.025ZM12.893,29.84V21.713l7.848,3.058v8.857l-7.85-3.052Zm8.512,3.86V24.843l8.046-3.129v8.857Z" fill="#fff"/>
      </g>
      <path id="Path_69189" data-name="Path 69189" d="M13.576,24.748H6.952a.331.331,0,0,1,0-.662h6.624a.331.331,0,1,1,0,.662Z" transform="translate(0.989)" fill="#fff"/>
      <path id="Path_69190" data-name="Path 69190" d="M16.226,26.737H9.6a.331.331,0,0,1,0-.662h6.623a.331.331,0,0,1,0,.662Z" transform="translate(0.989)" fill="#fff"/>
      <path id="Path_69191" data-name="Path 69191" d="M14.239,28.777H8.278a.331.331,0,0,1,0-.662h5.965a.331.331,0,0,1,0,.662Z" transform="translate(0.989)" fill="#fff"/>
    </g>
    <rect id="사각형_8827" data-name="사각형 8827" width="26" height="26" transform="translate(415 531)" fill="none"/>
  </g>
</svg>
