<svg xmlns="http://www.w3.org/2000/svg" width="26" height="26" viewBox="0 0 26 26">
  <g id="그룹_26442" data-name="그룹 26442" transform="translate(-354 -394)">
    <rect id="Rectangle_8742" data-name="Rectangle 8742" width="26" height="26" transform="translate(354 394)" fill="none"/>
    <g id="그룹_23829" data-name="그룹 23829" transform="translate(243.201 584.417)">
      <g id="그룹_315" data-name="그룹 315">
        <path id="Path_69184" data-name="Path 69184" d="M123.809-180.927a.342.342,0,0,1-.15-.036L120.2-182.72a.332.332,0,0,1-.145-.446.331.331,0,0,1,.445-.145l3.3,1.68,3.283-1.68a.331.331,0,0,1,.448.137.33.33,0,0,1-.137.447l-.011.006-3.433,1.757A.324.324,0,0,1,123.809-180.927Z" fill="#fff"/>
        <path id="Path_69185" data-name="Path 69185" d="M123.813-177.317a.331.331,0,0,1-.331-.331v-3.3a.332.332,0,0,1,.331-.332.331.331,0,0,1,.331.331h0v3.3A.331.331,0,0,1,123.813-177.317Z" fill="#fff"/>
        <g id="Group_26261" data-name="Group 26261">
          <path id="Path_69186" data-name="Path 69186" d="M128.867-178.7v-5.166a.328.328,0,0,0-.173-.291l-4.737-2.584a.33.33,0,0,0-.317,0l-4.737,2.579a.332.332,0,0,0-.173.291v5.191a.332.332,0,0,0,.174.291l4.737,2.564a.334.334,0,0,0,.316,0l4.737-2.583A.327.327,0,0,0,128.867-178.7Zm-.662-.2-4.407,2.4-4.4-2.384v-4.8l4.406-2.4,4.407,2.4Z" fill="#fff"/>
          <path id="Path_69187" data-name="Path 69187" d="M133.493-174.186c.466-.466.529-4.52.523-4.592a21.51,21.51,0,0,0-.874-3.5.329.329,0,0,0-.353-.222,2.054,2.054,0,0,0-1.534,1.015,2.731,2.731,0,0,0-.066,2.328l-.454,1.443a1.463,1.463,0,0,0-1.155.477l-1.267,1.272a2.527,2.527,0,0,1-.513.08,2.069,2.069,0,0,0-1.234.371l-1.292,1.292a.33.33,0,0,0-.048.062,3.284,3.284,0,0,0-.479,1.894v1.824h-.094a.331.331,0,0,0-.331.331v1.722a.331.331,0,0,0,.332.33.33.33,0,0,0,.33-.33v-1.385h5.365v1.391a.331.331,0,0,0,.331.331.329.329,0,0,0,.331-.33h0V-170.1a.331.331,0,0,0-.331-.331h-.487a1.957,1.957,0,0,1,.294-.727Zm-8.085,3.745v-1.843a2.647,2.647,0,0,1,.363-1.5l1.264-1.264a2.069,2.069,0,0,1,.83-.18,1.477,1.477,0,0,0,.892-.25l1.292-1.292c.382-.383.761-.346.966-.142s.24.583-.142.966l-2.153,2.153a.331.331,0,0,0,.011.468.331.331,0,0,0,.457,0l2.155-2.149a1.307,1.307,0,0,0,.2-1.838c-.017-.021-.035-.042-.054-.062a1.023,1.023,0,0,0-.126-.1l.5-1.576a.325.325,0,0,0,0-.2,2.159,2.159,0,0,1-.027-1.889,1.4,1.4,0,0,1,.784-.637,20.844,20.844,0,0,1,.751,3.076,24.137,24.137,0,0,1-.334,4.052l-3.05,3.061a2.655,2.655,0,0,0-.459,1.153Z" fill="#fff"/>
          <path id="Path_69188" data-name="Path 69188" d="M122.941-170.441h-.093v-1.8a3.152,3.152,0,0,0-.479-1.922.291.291,0,0,0-.047-.058l-1.29-1.292a2.061,2.061,0,0,0-1.231-.367c-.177-.018-.445-.044-.488-.06l-1.292-1.292a1.461,1.461,0,0,0-1.156-.477l-.452-1.439a2.72,2.72,0,0,0-.059-2.317,2.058,2.058,0,0,0-1.541-1.027.336.336,0,0,0-.353.222,21.558,21.558,0,0,0-.878,3.532c0,.038.058,4.09.527,4.559l2.979,2.973a1.987,1.987,0,0,1,.329.769h-.5a.331.331,0,0,0-.331.331v1.722a.331.331,0,0,0,.331.331.331.331,0,0,0,.331-.331v-1.4h5.365v1.391a.331.331,0,0,0,.331.331.331.331,0,0,0,.331-.331v-1.722a.33.33,0,0,0-.331-.33Zm-5.355-1.2-2.985-2.978a22.363,22.363,0,0,1-.364-4.05,21.009,21.009,0,0,1,.751-3.111,1.41,1.41,0,0,1,.791.65c.27.434.26.96-.034,1.877a.341.341,0,0,0,0,.2l.495,1.573a1.3,1.3,0,0,0-.125.1,1.309,1.309,0,0,0,.082,1.848l.06.052,2.153,2.153a.331.331,0,0,0,.468.01.331.331,0,0,0,.011-.468l-.011-.01-2.153-2.153c-.383-.383-.347-.761-.142-.966s.584-.241.966.142l1.293,1.293a1.48,1.48,0,0,0,.892.25,2.061,2.061,0,0,1,.83.18l1.262,1.269a2.557,2.557,0,0,1,.36,1.515v1.824h-4.1a2.689,2.689,0,0,0-.5-1.2Z" fill="#fff"/>
        </g>
      </g>
    </g>
  </g>
</svg>
