<svg xmlns="http://www.w3.org/2000/svg" width="16" height="16" viewBox="0 0 16 16">
  <g id="그룹_26246" data-name="그룹 26246" transform="translate(-0.276 -0.276)">
    <rect id="사각형_8760" data-name="사각형 8760" width="16" height="16" transform="translate(0.276 0.276)" fill="none"/>
    <path id="패스_69182" data-name="패스 69182" d="M82.609,278.07a.783.783,0,0,1,.427.789c-.014.167.076.2.211.231a4.987,4.987,0,0,1,4.087,4.268,5.9,5.9,0,0,1,.051.934c0,1.589,0,3.179,0,4.768,0,.112,0,.224,0,.374.2,0,.371,0,.545,0a.647.647,0,1,1,.008,1.29c-1.145,0-2.29,0-3.434,0H84.3a2.041,2.041,0,0,1-.78,1.514,1.888,1.888,0,0,1-1.259.368c-.9-.043-1.553-.73-1.75-1.883h-.295c-1.117,0-2.234,0-3.351,0a.614.614,0,0,1-.677-.68.6.6,0,0,1,.58-.606c.2-.012.407,0,.652,0v-.317c0-1.618.021-3.236,0-4.853a5.057,5.057,0,0,1,4.2-5.187,1.269,1.269,0,0,0,.167-.053.817.817,0,0,1,.44-.956Zm3.521,11.355v-.253c0-1.713,0-3.425,0-5.138a3.719,3.719,0,1,0-7.437-.025c-.017,1.731,0,3.463,0,5.194a2.176,2.176,0,0,0,.023.222Zm-3.143,1.333H81.8c.078.392.3.587.631.572A.562.562,0,0,0,82.988,290.758Z" transform="translate(-74.503 -277.435)" fill="gray"/>
  </g>
</svg>
