<svg xmlns="http://www.w3.org/2000/svg" width="20" height="20" viewBox="0 0 20 20">
  <g id="그룹_26761" data-name="그룹 26761" transform="translate(-1518 -150)">
    <g id="그룹_26218" data-name="그룹 26218" transform="translate(-362 -10)">
      <rect id="사각형_8752" data-name="사각형 8752" width="20" height="20" transform="translate(1880 160)" fill="none"/>
      <path id="패스_69179" data-name="패스 69179" d="M240.61,587.341a2,2,0,1,1-2,2A2,2,0,0,1,240.61,587.341Zm0,7a2,2,0,1,1-2,2A2,2,0,0,1,240.61,594.341Zm0,7a2,2,0,1,1-2,2A2,2,0,0,1,240.61,601.341Z" transform="translate(1649.39 -426.341)" fill="#939393"/>
    </g>
  </g>
</svg>
