<svg xmlns="http://www.w3.org/2000/svg" width="20" height="20" viewBox="0 0 20 20">
  <path id="패스_69168" data-name="패스 69168" d="M185.352,524.826l4.223,4.207c-.125.131-.267.289-.417.439q-7.431,7.435-14.855,14.874a1.4,1.4,0,0,1-1.121.479c-1.174-.031-2.349-.01-3.6-.01,0-1.4-.01-2.743.013-4.086,0-.159.167-.339.3-.469q7.607-7.622,15.223-15.234A2.674,2.674,0,0,1,185.352,524.826Zm-3.309,5.155q-5.465,5.473-10.9,10.925a.644.644,0,0,0-.209.373c-.02.719-.01,1.438-.01,2.191.554,0,1.026-.034,1.49.008a1.674,1.674,0,0,0,1.454-.586c3.34-3.382,6.71-6.735,10.069-10.1.162-.162.313-.334.435-.462Zm3.365-3.181-2.191,2.2,2.187,2.182,2.182-2.191Z" transform="translate(-169.576 -524.826)" fill="#fff"/>
</svg>
