<svg xmlns="http://www.w3.org/2000/svg" width="20" height="20" viewBox="0 0 20 20">
  <g id="그룹_26170" data-name="그룹 26170" transform="translate(-1160 -225)">
    <rect id="사각형_8682" data-name="사각형 8682" width="20" height="20" transform="translate(1160 225)" fill="none"/>
    <g id="그룹_26169" data-name="그룹 26169" transform="translate(1052.313 -178.167)">
      <path id="패스_69155" data-name="패스 69155" d="M110.19,426.655c.249.225.41.368.568.515q2.862,2.66,5.724,5.32a1.536,1.536,0,0,0,2.4,0q2.836-2.623,5.663-5.257c.18-.168.363-.332.6-.552.015.182.031.279.031.376,0,2.557.008,5.114,0,7.671a2.238,2.238,0,0,1-1.691,2.321,2.887,2.887,0,0,1-.7.066q-5.129.005-10.258,0a2.22,2.22,0,0,1-2.343-2.386C110.184,432.084,110.19,429.438,110.19,426.655Z" transform="translate(0 -17.957)" fill="#5786ed"/>
      <path id="패스_69156" data-name="패스 69156" d="M132.042,407.353l-6.952,5.577-6.865-5.492,0-.127a6.746,6.746,0,0,1,.944-.133c3.012-.01,6.023-.006,9.035-.006.979,0,1.959-.01,2.937.009A5.81,5.81,0,0,1,132.042,407.353Z" transform="translate(-7.406)" fill="#5786ed"/>
    </g>
  </g>
</svg>
