<svg xmlns="http://www.w3.org/2000/svg" width="20" height="20" viewBox="0 0 20 20">
  <g id="그룹_26383" data-name="그룹 26383" transform="translate(7224 4820)">
    <path id="패스_69252" data-name="패스 69252" d="M-158.785,117.589h1.866c.41.2.873.387,1,.846a1.187,1.187,0,0,0,.933.838.236.236,0,0,1,.059.03.38.38,0,0,0,.454-.018,1.543,1.543,0,0,1,1.875.226,11.367,11.367,0,0,1,.875.914,1.356,1.356,0,0,1,.278,1.518,1.136,1.136,0,0,0,.051,1.163.336.336,0,0,1,.035.093.412.412,0,0,0,.349.339,1.559,1.559,0,0,1,1.148,1.5c.005.378.009.756,0,1.133a1.381,1.381,0,0,1-.851,1.356,1.219,1.219,0,0,0-.82.909c-.009.032-.04.06-.04.09a.993.993,0,0,0,.018.418,1.6,1.6,0,0,1-.253,1.935c-.276.288-.565.567-.866.828a1.343,1.343,0,0,1-1.512.3,1.236,1.236,0,0,0-1.227.056.1.1,0,0,1-.031.013c-.222.043-.311.179-.373.4a1.56,1.56,0,0,1-1.5,1.109c-.367,0-.733.006-1.1,0a1.406,1.406,0,0,1-1.4-.888,1.15,1.15,0,0,0-.835-.763c-.053-.016-.1-.062-.152-.063a.941.941,0,0,0-.417.024,1.6,1.6,0,0,1-1.934-.263c-.287-.278-.567-.565-.827-.867a1.35,1.35,0,0,1-.294-1.514,1.163,1.163,0,0,0-.053-1.194c-.036-.068-.046-.15-.085-.215a.26.26,0,0,0-.136-.123,1.818,1.818,0,0,1-1.307-1.2v-1.867c.2-.423.4-.892.872-1.021a1.083,1.083,0,0,0,.787-.851.485.485,0,0,1,.054-.121.387.387,0,0,0-.014-.454,1.553,1.553,0,0,1,.263-1.923c.271-.278.55-.549.841-.8a1.345,1.345,0,0,1,1.507-.317,1.292,1.292,0,0,0,1.284-.075,1.14,1.14,0,0,0,.155-.057c.049-.035.11-.085.121-.137A1.812,1.812,0,0,1-158.785,117.589Zm6.4,3.859a2.6,2.6,0,0,0-.238-.4c-.206-.233-.427-.453-.649-.67a.541.541,0,0,0-.869,0,.65.65,0,0,1-.841.121c-.418-.2-.85-.375-1.285-.535-.413-.151-.5-.242-.521-.694a.566.566,0,0,0-.629-.613c-.289-.006-.577-.006-.866,0a.57.57,0,0,0-.642.633c-.017.438-.117.548-.525.693a11.9,11.9,0,0,0-1.2.485c-.489.235-.555.242-.962-.13a.532.532,0,0,0-.774-.011c-.237.217-.463.448-.686.68a.541.541,0,0,0,0,.869.65.65,0,0,1,.12.841c-.2.418-.376.85-.535,1.286-.151.412-.242.5-.694.52a.565.565,0,0,0-.612.629c-.006.289-.006.577,0,.866a.57.57,0,0,0,.634.642c.438.017.547.117.692.525a13.247,13.247,0,0,0,.5,1.228c.215.455.22.532-.117.914a.532.532,0,0,0,0,.823c.2.211.4.417.6.621a.556.556,0,0,0,.917.018.636.636,0,0,1,.813-.112,12.848,12.848,0,0,0,1.253.525c.46.163.537.237.565.728a.563.563,0,0,0,.615.594c.289.008.578.005.866,0,.447-.007.659-.2.651-.653a.635.635,0,0,1,.517-.67,11.152,11.152,0,0,0,1.2-.481c.5-.241.552-.251.97.109a.526.526,0,0,0,.8-.007c.226-.212.444-.435.66-.659a.547.547,0,0,0,.01-.87c-.29-.322-.295-.469-.109-.865a12.3,12.3,0,0,0,.5-1.194c.169-.485.226-.55.745-.594a.559.559,0,0,0,.585-.622c.006-.266,0-.533,0-.8,0-.494-.188-.69-.682-.691a.6.6,0,0,1-.616-.447c-.179-.476-.368-.949-.583-1.409a.607.607,0,0,1,.107-.756A3.477,3.477,0,0,0-152.381,121.448Zm-5.491,7.871a3.719,3.719,0,0,1-3.71-3.768,3.72,3.72,0,0,1,3.75-3.694,3.718,3.718,0,0,1,3.711,3.768A3.72,3.72,0,0,1-157.872,129.319Zm2.687-3.741a2.69,2.69,0,0,0-2.685-2.656,2.688,2.688,0,0,0-2.648,2.66,2.69,2.69,0,0,0,2.668,2.674A2.691,2.691,0,0,0-155.185,125.578Z" transform="translate(-7056.149 -4935.589)" fill="#fff"/>
    <rect id="사각형_8811" data-name="사각형 8811" width="20" height="20" transform="translate(-7224 -4820)" fill="none"/>
  </g>
</svg>
