<svg xmlns="http://www.w3.org/2000/svg" width="20" height="20" viewBox="0 0 20 20">
  <g id="그룹_27248" data-name="그룹 27248" transform="translate(-130 -100)">
    <path id="패스_69268" data-name="패스 69268" d="M333.7,456.1l1.488-1.585a2.1,2.1,0,0,0,.407-2.18,1.88,1.88,0,0,0-1.734-1.235h-2.816a1.942,1.942,0,0,0-1.877-2H325.41a1.723,1.723,0,0,1-1.877,0h-.939a1.942,1.942,0,0,0-1.877,2v12a1.942,1.942,0,0,0,1.877,2h.939a1.941,1.941,0,0,0,1.877-2v-4h1.877a1.941,1.941,0,0,0,1.877,2h4.693a1.879,1.879,0,0,0,1.734-1.234,2.1,2.1,0,0,0-.407-2.18Z" transform="translate(-188.226 -347.102)" fill="#aac2f6"/>
    <rect id="사각형_9035" data-name="사각형 9035" width="20" height="20" transform="translate(130 100)" fill="none"/>
  </g>
</svg>
