<svg xmlns="http://www.w3.org/2000/svg" width="20" height="20" viewBox="0 0 20 20">
  <g id="그룹_25768" data-name="그룹 25768" transform="translate(-56 -18)">
    <path id="folders" d="M302,451h-2.764l-.447-.895A2,2,0,0,0,297,449h-4a2,2,0,0,0-2,2v7a2,2,0,0,0,2,2h9a2,2,0,0,0,2-2v-5A2,2,0,0,0,302,451Zm0,7h-9v-7h4l1,2h4Zm-3,3h-9v-7a1,1,0,0,0-2,0v7a1.871,1.871,0,0,0,.09.59,2.024,2.024,0,0,0,1.32,1.32,1.871,1.871,0,0,0,.59.09h9a1,1,0,0,0,0-2Z" transform="translate(-230 -428)" fill="#fff" stroke="#192437" stroke-width="1" fill-rule="evenodd"/>
    <rect id="사각형_8290" data-name="사각형 8290" width="20" height="20" transform="translate(56 18)" fill="none"/>
  </g>
</svg>
