<svg xmlns="http://www.w3.org/2000/svg" width="20" height="20" viewBox="0 0 20 20">
  <g id="그룹_26414" data-name="그룹 26414" transform="translate(7199 4891)">
    <path id="패스_69244" data-name="패스 69244" d="M4.246,18.929A1.24,1.24,0,0,1,3,17.694V11.186A3.7,3.7,0,0,1,6.718,7.5h5.974a.591.591,0,0,1,.591.593l-.007,2.149h1.975a.575.575,0,0,1,.412.174l3.153,3.231L19,14.1v4.263a.565.565,0,0,1-.565.565H4.246Zm2.987,0H5.463a1.77,1.77,0,1,0,3.539,0Zm6.7,0h-1.77a1.77,1.77,0,1,0,3.539,0Z" transform="translate(-7200 -4895.1)" fill="#aac2f6"/>
    <rect id="사각형_8803" data-name="사각형 8803" width="20" height="20" transform="translate(-7199 -4891)" fill="none"/>
  </g>
</svg>
