<svg xmlns="http://www.w3.org/2000/svg" xmlns:xlink="http://www.w3.org/1999/xlink" width="27" height="18" viewBox="0 0 27 18">
  <defs>
    <clipPath id="clip-path">
      <rect width="27" height="18" fill="none"/>
    </clipPath>
  </defs>
  <g id="반복_그리드_1" data-name="반복 그리드 1" clip-path="url(#clip-path)">
    <g id="그룹_26344" data-name="그룹 26344" transform="translate(-56.606 -591.606)">
      <g id="그룹_26343" data-name="그룹 26343" transform="translate(56.606 591.606)">
        <path id="패스_69213" data-name="패스 69213" d="M70.106,609.6q-6.681,0-13.362,0c-.113,0-.138-.026-.138-.138q0-8.863,0-17.725c0-.112.025-.138.138-.138q13.362,0,26.725,0c.113,0,.138.025.138.138q0,8.862,0,17.725c0,.112-.025.138-.138.138Q76.788,609.6,70.106,609.6Zm-3.994-11.037a.346.346,0,0,0-.043.057,4.4,4.4,0,0,0-.386,2.806,4.332,4.332,0,0,0,1.428,2.527,4.38,4.38,0,0,0,4.021,1.024,4.318,4.318,0,0,0,2.327-1.375,3.5,3.5,0,0,0,.673-1.044c.05-.026.059-.08.078-.123a4.5,4.5,0,0,0-3.281-6.249,4.3,4.3,0,0,0-2.931.448A4.246,4.246,0,0,0,66.112,598.567Zm-4.745-1.083c.024-.033.05-.066.074-.1l2.2-3.294c.074-.112.227-.248.2-.33-.032-.105-.205-.169-.32-.247-.089-.061-.2-.174-.27-.157s-.133.16-.193.25q-1.119,1.679-2.239,3.357c-.061.091-.06.134.038.19.146.084.284.184.425.278Zm.916.61c.051,0,.059-.037.078-.063.09-.132.177-.265.266-.4q1.053-1.578,2.108-3.154c.063-.094.055-.134-.04-.19-.145-.086-.284-.184-.421-.283-.068-.049-.1-.053-.156.028-.276.426-.561.847-.842,1.27-.508.762-1.014,1.526-1.525,2.286-.058.087-.051.127.039.179.146.086.283.185.424.279Zm13.741-4.139c-.028.017-.054.033-.078.05-.149.1-.295.2-.447.3-.079.048-.082.083-.03.159.223.324.439.653.657.98q.858,1.286,1.714,2.573c.049.074.078.1.157.038.149-.108.3-.207.461-.305.06-.038.067-.068.024-.127-.088-.12-.167-.248-.25-.372q-1.059-1.591-2.119-3.182C76.086,594.028,76.071,593.978,76.024,593.956Zm-12.792,4.762c.038,0,.045-.036.06-.059q1.2-1.795,2.4-3.59c.045-.068.033-.1-.033-.136a4.819,4.819,0,0,1-.422-.281c-.091-.07-.137-.06-.2.037-.4.616-.815,1.228-1.223,1.841q-.564.845-1.126,1.691c-.022.034-.1.075-.029.123.179.126.364.243.547.364A.141.141,0,0,0,63.232,598.718Zm2.493,7.484c-.012-.02-.025-.041-.039-.062q-1.194-1.789-2.386-3.579c-.044-.066-.073-.077-.138-.031-.142.1-.285.2-.436.288-.1.059-.093.1-.033.192.394.581.782,1.166,1.171,1.75s.788,1.185,1.185,1.777c.027.041.041.122.128.062.168-.116.339-.227.509-.34C65.705,606.245,65.731,606.236,65.724,606.2Zm-1.868,1.25c-.021-.032-.039-.062-.058-.091l-.457-.684c-.627-.941-1.257-1.88-1.879-2.825-.077-.117-.128-.123-.232-.04a3.51,3.51,0,0,1-.386.256c-.079.047-.094.084-.037.167.248.362.488.729.73,1.094q.816,1.225,1.63,2.452c.054.081.09.107.177.04.143-.108.3-.2.444-.3C63.817,607.5,63.855,607.492,63.857,607.452Zm14.257-12.411c-.369-.553-.737-1.1-1.1-1.653-.04-.061-.065-.05-.114-.016-.159.111-.319.22-.483.324-.061.039-.062.066-.023.124q.525.78,1.043,1.565c.037.057.066.072.127.029C77.741,595.288,77.925,595.168,78.114,595.042Zm-1.887,1.233c-.01-.018-.021-.04-.034-.06-.348-.522-.7-1.043-1.044-1.566-.04-.061-.067-.064-.125-.024-.155.108-.313.213-.474.313-.06.037-.072.064-.03.125q.529.788,1.053,1.578c.033.05.058.066.115.026.159-.112.323-.216.484-.324C76.193,596.327,76.228,596.319,76.226,596.275Zm2.089-.914-.041.027c-.174.116-.348.232-.523.346-.055.035-.039.064-.01.107q.532.793,1.059,1.589c.032.049.057.052.1.02.165-.112.33-.222.5-.329.056-.035.056-.063.021-.115q-.528-.787-1.051-1.577A.852.852,0,0,0,78.315,595.361Zm-16.021,7.754a.3.3,0,0,0-.038.019c-.174.115-.348.232-.523.346-.047.031-.037.057-.011.1q.532.8,1.06,1.594c.038.058.067.054.117.02.16-.11.321-.219.485-.324.052-.033.067-.055.029-.112-.353-.525-.7-1.052-1.055-1.578C62.341,603.151,62.331,603.12,62.294,603.115Zm16.239.393a.413.413,0,0,1-.052-.026c-.174-.115-.349-.23-.522-.348-.059-.04-.077,0-.1.039q-.526.789-1.055,1.578c-.036.054-.031.079.025.114.16.1.32.2.473.315.073.053.1.035.148-.032.34-.516.683-1.03,1.025-1.544Zm.919.65c.008-.037-.022-.043-.041-.056-.174-.116-.349-.229-.522-.347-.062-.043-.074.008-.1.042-.348.521-.694,1.044-1.045,1.563-.045.067-.037.1.028.137.156.1.312.2.46.307.073.055.1.034.145-.032.339-.515.682-1.028,1.023-1.542Zm-3.228.789c.008-.034-.012-.047-.034-.061-.174-.116-.348-.232-.52-.35-.05-.034-.069,0-.092.03q-.53.8-1.061,1.59c-.037.055-.028.081.025.115.164.1.327.21.486.321.065.046.087.022.123-.033q.516-.778,1.036-1.553C76.2,604.986,76.212,604.964,76.223,604.946Zm-12.578.192-.049.03c-.165.111-.329.224-.5.331-.071.045-.043.085-.01.133q.523.781,1.043,1.564c.034.052.056.067.111.029.163-.114.328-.226.495-.333.055-.035.058-.063.023-.116q-.528-.787-1.054-1.575C63.691,605.177,63.682,605.144,63.645,605.139Zm13.534.4c-.017-.01-.038-.02-.058-.033-.17-.112-.342-.222-.509-.34-.069-.049-.085,0-.111.041-.348.521-.695,1.043-1.045,1.563-.04.06-.036.089.024.127.159.1.318.2.47.317.074.054.1.032.144-.033.34-.515.683-1.028,1.024-1.541C77.134,605.613,77.148,605.588,77.179,605.538Zm-.228,2.336c.046,0,.053-.04.071-.066q.522-.782,1.043-1.564c.037-.055.042-.083-.023-.123-.161-.1-.317-.206-.471-.316-.065-.047-.1-.039-.139.026q-.518.785-1.043,1.565c-.043.064-.027.087.029.123.159.1.315.21.471.316Zm-.516-11.258a.15.15,0,0,0-.028.012l-.546.365c-.046.031-.014.06,0,.087q.529.795,1.059,1.59c.03.045.054.06.106.024.163-.113.329-.224.5-.329.059-.037.056-.063.021-.116-.352-.525-.7-1.051-1.052-1.576C76.481,596.649,76.471,596.617,76.435,596.616Zm0,7.982c.039-.009.05-.038.066-.062q.522-.781,1.044-1.563c.037-.054.049-.086-.019-.128-.165-.1-.326-.21-.485-.322-.066-.046-.089-.017-.125.037q-.515.777-1.036,1.551c-.041.061-.049.094.022.138.161.1.316.208.473.313C76.394,604.575,76.415,604.587,76.433,604.6Z" transform="translate(-56.606 -591.606)" fill="#fff"/>
        <path id="패스_69214" data-name="패스 69214" d="M101.43,623.685a3.5,3.5,0,0,1-.673,1.044,4.318,4.318,0,0,1-2.327,1.375,4.38,4.38,0,0,1-4.021-1.024,4.332,4.332,0,0,1-1.428-2.527,4.4,4.4,0,0,1,.386-2.806.352.352,0,0,1,.043-.057.174.174,0,0,1-.014.1,2.249,2.249,0,0,0,2.609,2.889,2.462,2.462,0,0,0,1.445-1.012,2.163,2.163,0,0,1,2.269-.9,2.235,2.235,0,0,1,1.8,2.057A3.276,3.276,0,0,1,101.43,623.685Z" transform="translate(-83.905 -612.729)" fill="#003b8a"/>
        <path id="패스_69215" data-name="패스 69215" d="M102.61,616.207a3.276,3.276,0,0,0,.09-.856,2.235,2.235,0,0,0-1.8-2.057,2.163,2.163,0,0,0-2.269.9,2.462,2.462,0,0,1-1.445,1.012,2.249,2.249,0,0,1-2.609-2.889.174.174,0,0,0,.014-.1,4.246,4.246,0,0,1,1.885-1.929,4.3,4.3,0,0,1,2.931-.448,4.5,4.5,0,0,1,3.281,6.249C102.67,616.127,102.66,616.181,102.61,616.207Z" transform="translate(-85.085 -605.251)" fill="#d40326"/>
        <path id="패스_69216" data-name="패스 69216" d="M74.022,602.784l-.086-.055c-.141-.093-.279-.193-.425-.278-.1-.056-.1-.1-.038-.19q1.123-1.676,2.239-3.357c.06-.091.114-.233.193-.25s.181.1.27.157c.115.078.289.142.32.247.025.083-.127.219-.2.33l-2.2,3.294C74.072,602.718,74.046,602.751,74.022,602.784Z" transform="translate(-69.261 -596.906)" fill="#0a0a0b"/>
        <path id="패스_69217" data-name="패스 69217" d="M77.776,605.273l-.071-.046c-.141-.094-.278-.193-.424-.279-.089-.052-.1-.092-.039-.179.511-.76,1.017-1.524,1.525-2.286.282-.423.566-.843.842-1.27.052-.081.088-.077.156-.028.137.1.276.2.421.283.095.056.1.1.04.19q-1.058,1.574-2.108,3.154c-.088.132-.176.266-.266.4C77.835,605.236,77.827,605.278,77.776,605.273Z" transform="translate(-72.099 -598.784)" fill="#0b0b0b"/>
        <path id="패스_69218" data-name="패스 69218" d="M133.156,601.087c.047.022.062.072.088.11q1.061,1.591,2.119,3.182c.083.124.161.252.25.372.043.059.037.089-.024.127-.156.1-.312.2-.461.305-.079.057-.108.035-.157-.038q-.853-1.289-1.714-2.573c-.218-.327-.434-.656-.657-.98-.052-.075-.049-.11.03-.159.153-.093.3-.2.447-.3C133.1,601.12,133.129,601.1,133.156,601.087Z" transform="translate(-113.738 -598.737)" fill="#0b0b0b"/>
        <path id="패스_69219" data-name="패스 69219" d="M81.509,607.826a.144.144,0,0,1-.028-.01c-.183-.121-.368-.238-.547-.364-.067-.048.007-.089.029-.123q.56-.847,1.126-1.691c.409-.613.819-1.225,1.223-1.841.064-.1.109-.106.2-.037a4.819,4.819,0,0,0,.422.281c.066.04.078.068.033.136q-1.2,1.794-2.4,3.59C81.554,607.79,81.547,607.826,81.509,607.826Z" transform="translate(-74.883 -600.714)" fill="#080909"/>
        <path id="패스_69220" data-name="패스 69220" d="M84.056,639.268c.007.034-.019.043-.039.057-.17.113-.341.224-.509.34-.087.06-.1-.022-.128-.062q-.594-.887-1.185-1.777c-.389-.584-.777-1.169-1.171-1.75-.06-.089-.071-.133.033-.192.151-.086.294-.187.436-.288.065-.045.094-.035.138.031q1.19,1.791,2.386,3.579C84.031,639.226,84.043,639.248,84.056,639.268Z" transform="translate(-74.937 -624.671)" fill="#080909"/>
        <path id="패스_69221" data-name="패스 69221" d="M76.506,644.325c0,.04-.04.048-.066.066-.148.1-.3.2-.444.3-.087.066-.124.041-.177-.04q-.812-1.228-1.63-2.452c-.243-.365-.483-.732-.73-1.094-.057-.083-.041-.12.037-.167a3.5,3.5,0,0,0,.386-.256c.1-.083.155-.078.232.04.622.945,1.251,1.884,1.879,2.825l.457.684C76.467,644.263,76.485,644.293,76.506,644.325Z" transform="translate(-69.255 -628.479)" fill="#0a0a0b"/>
        <path id="패스_69222" data-name="패스 69222" d="M138.073,600.317c-.189.127-.373.246-.552.372-.061.043-.09.028-.127-.029q-.519-.784-1.043-1.564c-.039-.058-.038-.085.023-.124.164-.1.324-.213.483-.324.049-.034.074-.045.114.016C137.336,599.215,137.7,599.764,138.073,600.317Z" transform="translate(-116.566 -596.881)" fill="#0b0b0b"/>
        <path id="패스_69223" data-name="패스 69223" d="M130.509,605.353c0,.044-.033.052-.056.068-.161.109-.325.213-.484.324-.057.04-.082.024-.115-.026q-.525-.79-1.053-1.578c-.041-.061-.03-.088.03-.125.161-.1.319-.2.474-.313.058-.04.084-.037.125.024.346.523.7,1.044,1.044,1.566C130.488,605.314,130.5,605.336,130.509,605.353Z" transform="translate(-110.889 -600.685)" fill="#090a0a"/>
        <path id="패스_69224" data-name="패스 69224" d="M142.369,606.754a.852.852,0,0,1,.055.068q.525.789,1.051,1.577c.035.053.035.08-.021.115-.168.107-.334.217-.5.329-.046.031-.071.029-.1-.02q-.527-.8-1.059-1.589c-.029-.043-.044-.072.01-.107.175-.113.349-.23.523-.346Z" transform="translate(-120.66 -602.999)" fill="#0b0b0c"/>
        <path id="패스_69225" data-name="패스 69225" d="M77.751,638.039c.037.005.047.037.063.061.352.526.7,1.053,1.055,1.578.038.057.023.079-.029.112-.164.1-.325.213-.485.324-.05.034-.079.038-.117-.02q-.526-.8-1.06-1.594c-.026-.039-.036-.066.011-.1.175-.114.349-.231.523-.346A.3.3,0,0,1,77.751,638.039Z" transform="translate(-72.063 -626.53)" fill="#0c0c0d"/>
        <path id="패스_69226" data-name="패스 69226" d="M139.747,638.441l-.061.1c-.342.515-.685,1.028-1.025,1.544-.044.067-.075.086-.148.032-.153-.112-.312-.214-.473-.315-.056-.035-.061-.06-.025-.114q.53-.788,1.055-1.578c.026-.038.044-.079.1-.039.173.118.348.233.522.348A.412.412,0,0,0,139.747,638.441Z" transform="translate(-117.82 -626.539)" fill="#0c0c0d"/>
        <path id="패스_69227" data-name="패스 69227" d="M143.521,640.975l-.048.073c-.341.514-.684,1.027-1.023,1.542-.043.066-.072.086-.145.032-.148-.109-.3-.209-.46-.307-.065-.041-.073-.07-.028-.137.351-.519.7-1.042,1.045-1.563.022-.034.034-.085.1-.042.173.118.348.231.522.347C143.5,640.931,143.529,640.938,143.521,640.975Z" transform="translate(-120.676 -628.423)" fill="#0b0b0c"/>
        <path id="패스_69228" data-name="패스 69228" d="M130.5,644.132c-.011.018-.024.039-.037.06q-.518.776-1.036,1.553c-.036.055-.059.078-.123.033-.158-.112-.321-.218-.486-.321-.054-.034-.062-.06-.025-.115q.533-.793,1.061-1.59c.023-.034.042-.065.092-.03.172.119.346.234.52.35C130.49,644.085,130.51,644.1,130.5,644.132Z" transform="translate(-110.885 -630.792)" fill="#090a0a"/>
        <path id="패스_69229" data-name="패스 69229" d="M83.216,646.2c.037.006.046.039.062.062q.528.787,1.054,1.575c.035.053.031.081-.023.116-.167.108-.332.22-.495.333-.055.038-.076.023-.111-.029q-.518-.784-1.043-1.564c-.032-.049-.06-.088.01-.133.168-.107.331-.22.5-.331Z" transform="translate(-76.177 -632.671)" fill="#0b0c0c"/>
        <path id="패스_69230" data-name="패스 69230" d="M134.3,646.621c-.03.05-.045.076-.061.1-.342.514-.685,1.026-1.024,1.541-.043.065-.07.088-.144.033-.152-.113-.311-.215-.47-.317-.06-.038-.064-.067-.024-.127.35-.52.7-1.042,1.045-1.563.026-.039.042-.09.111-.041.166.118.339.228.509.34C134.26,646.6,134.281,646.611,134.3,646.621Z" transform="translate(-113.726 -632.689)" fill="#0b0b0c"/>
        <path id="패스_69231" data-name="패스 69231" d="M136.909,650.87l-.062-.041c-.157-.106-.312-.213-.471-.315-.056-.036-.072-.059-.029-.123q.526-.779,1.043-1.564c.043-.065.075-.073.139-.026.153.11.31.217.471.316.065.04.059.069.023.123q-.523.781-1.043,1.564C136.963,650.83,136.955,650.871,136.909,650.87Z" transform="translate(-116.565 -634.601)" fill="#0b0b0b"/>
        <path id="패스_69232" data-name="패스 69232" d="M134.794,611.82c.036,0,.046.033.061.056.351.525.7,1.051,1.052,1.576.035.053.038.079-.021.116-.169.106-.334.216-.5.329-.052.036-.076.021-.106-.024q-.529-.8-1.059-1.589c-.018-.027-.051-.056,0-.087l.546-.365A.147.147,0,0,1,134.794,611.82Z" transform="translate(-114.965 -606.81)" fill="#090a0a"/>
        <path id="패스_69233" data-name="패스 69233" d="M134.822,637.657c-.018-.011-.039-.023-.059-.036-.157-.1-.312-.214-.473-.313-.071-.044-.063-.077-.022-.138q.521-.773,1.036-1.551c.035-.053.059-.083.125-.037.159.111.32.22.485.322.068.042.056.074.019.128q-.524.78-1.044,1.563C134.872,637.619,134.861,637.648,134.822,637.657Z" transform="translate(-114.995 -624.665)" fill="#090a0a"/>
      </g>
    </g>
  </g>
</svg>
