<svg xmlns="http://www.w3.org/2000/svg" width="19" height="19" viewBox="0 0 19 19">
  <g id="그룹_25419" data-name="그룹 25419" transform="translate(-30 -261)">
    <path id="패스_2549" data-name="패스 2549" d="M11.636,2A6.669,6.669,0,0,0,5,8.711c0,4,4.19,6.635,5.916,8.734a.935.935,0,0,0,1.451,0c1.716-2.1,5.906-4.736,5.906-8.734A6.669,6.669,0,0,0,11.636,2Zm0,9.108a2.4,2.4,0,1,1,2.37-2.4A2.385,2.385,0,0,1,11.636,11.108Z" transform="translate(28 261)" fill="#ff7474"/>
    <rect id="사각형_7853" data-name="사각형 7853" width="19" height="19" transform="translate(30 261)" fill="none"/>
  </g>
</svg>
