<svg xmlns="http://www.w3.org/2000/svg" xmlns:xlink="http://www.w3.org/1999/xlink" width="292.001" height="183" viewBox="0 0 292.001 183">
  <defs>
    <clipPath id="clip-path">
      <path id="패스_69097" data-name="패스 69097" d="M110.974,35.956c27.981,0,50.248,21.655,50.3,56.7.013,9.217-1.333,16.966-4.382,24.4-8.194,19.986-29.081,32.684-47.606,32.684-22.777,0-23.806.215-36.814.215-1.4-5.068-12.162-51.541-12.162-57.359C60.309,61.313,82.993,35.956,110.974,35.956Z" transform="translate(-60.309 -35.956)" fill="none"/>
    </clipPath>
    <linearGradient id="linear-gradient" x1="-182.363" y1="-1.566" x2="-182.336" y2="-1.542" gradientUnits="objectBoundingBox">
      <stop offset="0" stop-color="#333"/>
      <stop offset="1" stop-color="#ccc"/>
    </linearGradient>
  </defs>
  <g id="그룹_25940" data-name="그룹 25940" transform="translate(-1362 -241)">
    <g id="그룹_1" data-name="그룹 1" transform="translate(1362 390)">
      <path id="패스_7525" data-name="패스 7525" d="M115.884,129.843a11.306,11.306,0,0,1,10.993,10.906c0,5.76-5.187,10.264-10.993,10.264a10.19,10.19,0,0,1-10.347-10.264c0-5.76,4.54-10.906,10.347-10.906m0-6.415c-9.524,0-16.814,7.873-16.814,17.321a16.452,16.452,0,0,0,16.814,16.679c9.524,0,17.46-7.231,17.46-16.679a17.545,17.545,0,0,0-17.46-17.321Z" transform="translate(-67.383 -123.428)" fill="#000833"/>
      <g id="그룹_4136" data-name="그룹 4136" transform="translate(0 0)">
        <path id="패스_7526" data-name="패스 7526" d="M99.429,151.014A10.19,10.19,0,0,1,89.082,140.75c0-5.76,4.54-10.906,10.347-10.906a11.531,11.531,0,0,1,7.113,2.566l4.527-5.132a18.574,18.574,0,0,0-11.64-3.849c-9.522,0-16.814,7.873-16.814,17.321a16.453,16.453,0,0,0,16.814,16.679,18.563,18.563,0,0,0,11.64-3.849l-4.527-5.132A11.52,11.52,0,0,1,99.429,151.014Z" transform="translate(-82.616 -123.429)" fill="#0a72ec"/>
      </g>
      <path id="패스_7527" data-name="패스 7527" d="M152.126,129.843c5.807,0,10.347,5.145,10.347,10.906a10.19,10.19,0,0,1-10.347,10.264c-5.8,0-10.993-4.5-10.993-10.264a11.307,11.307,0,0,1,10.993-10.906m0-6.415a17.546,17.546,0,0,0-17.46,17.321c0,9.448,7.938,16.679,17.46,16.679a16.452,16.452,0,0,0,16.814-16.679c0-9.448-7.289-17.321-16.814-17.321Z" transform="translate(-34.153 -123.428)" fill="#000833"/>
      <g id="그룹_4137" data-name="그룹 4137" transform="translate(68.948 0)">
        <path id="패스_7528" data-name="패스 7528" d="M135.675,151.014c-5.8,0-10.993-4.5-10.993-10.264a11.307,11.307,0,0,1,10.993-10.906,9.784,9.784,0,0,1,6.467,2.566l4.527-5.132a16.782,16.782,0,0,0-10.993-3.849,17.546,17.546,0,0,0-17.46,17.321c0,9.448,7.938,16.679,17.46,16.679a16.772,16.772,0,0,0,10.993-3.849l-4.527-5.132A9.775,9.775,0,0,1,135.675,151.014Z" transform="translate(-118.215 -123.429)" fill="#0a72ec"/>
      </g>
      <path id="패스_7519" data-name="패스 7519" d="M100.748,181.13h-7.76v-26.3H82.641v-7.056h29.1v7.056H100.748Z" transform="translate(59.764 -147.13)" fill="#000833"/>
      <path id="패스_7529" data-name="패스 7529" d="M96.911,181.13V147.776h11.64a16.1,16.1,0,0,1,6.467,1.283,8.4,8.4,0,0,1,3.88,3.207,11.282,11.282,0,0,1,1.293,5.773,10.988,10.988,0,0,1-1.293,4.49,8.558,8.558,0,0,1-2.587,3.207,9.919,9.919,0,0,1-3.88,1.924l10.993,13.47h-8.407l-9.7-12.187h-1.293V181.13Zm7.113-17.959h2.587a11.287,11.287,0,0,0,3.88-.641,4.419,4.419,0,0,0,1.94-1.924,4.187,4.187,0,0,0,.647-2.566c0-1.626-.168-2.976-1.293-3.848a8.943,8.943,0,0,0-5.173-1.283h-2.587Z" transform="translate(77.073 -147.13)" fill="#000833"/>
      <path id="패스_7530" data-name="패스 7530" d="M123.72,181.049c-4.15,0-6.924-.5-9.053-2.566s-3.233-5.556-3.233-9.621V147.7H117.9v19.242c0,2.777.337,5.2,1.293,6.414a6.287,6.287,0,0,0,9.053,0,11,11,0,0,0,1.94-6.414V147.7h6.467v21.167c0,4.065-1.112,7.558-3.233,9.621S127.885,181.049,123.72,181.049Z" transform="translate(92.197 -147.049)" fill="#000833"/>
      <path id="패스_7531" data-name="패스 7531" d="M138.986,181.045V147.691h6.467V161.8l12.287-14.111h8.407l-14.227,16.035,16.167,17.318h-9.053l-13.58-14.111v14.111Z" transform="translate(123.915 -147.045)" fill="#000833"/>
      <g id="그룹_4138" data-name="그룹 4138" transform="translate(231.86 0.647)">
        <path id="패스_7532" data-name="패스 7532" d="M135.368,174.645a10.263,10.263,0,1,0,0-20.525,9.974,9.974,0,0,0-6.467,2.566l-4.527-5.131a17.1,17.1,0,0,1,10.993-3.848,16.677,16.677,0,1,1,0,33.353,17.112,17.112,0,0,1-10.993-3.848l4.527-4.49C130.7,174.226,132.836,174.645,135.368,174.645Z" transform="translate(-124.374 -147.706)" fill="#000833"/>
      </g>
    </g>
    <g id="그룹_4142" data-name="그룹 4142" transform="translate(1430 241)">
      <g id="그룹_4140" data-name="그룹 4140">
        <path id="패스_7505" data-name="패스 7505" d="M161.106,60.636c-4.505-8.814-16.256-13.561-24.663-18.7-8.068-4.917-29.588-5.985-39.726-5.985H62.985C43.922,35.956,40.5,45.6,40.5,45.6l9.233,19.462h68.622a27.8,27.8,0,0,1,0,55.608H52.649l12.56,19.46s-1.069,9.643,17.994,9.643H96.716c20.7,0,56.4-8.757,65.226-26.035,3.741-7.3,7.54-21.151,7.54-30.873C169.482,82.6,164.844,67.932,161.106,60.636Z" transform="translate(-12.568 -35.955)" fill="#0049ba"/>
        <path id="패스_7507" data-name="패스 7507" d="M89.327,65.245V35.956H79.1c-19.227,0-22.672,9.7-22.672,9.7L48.285,65.245Z" transform="translate(-9.248 -35.955)" fill="#1da1d1"/>
        <g id="그룹_4135" data-name="그룹 4135" transform="translate(0 0.001)">
          <path id="패스_7508" data-name="패스 7508" d="M28,35.956l-6.441.111L29.59,55.394s3.462,9.851,16.221,9.851H92.184l6.489-29.289" transform="translate(-21.556 -35.956)" fill="#03398e"/>
          <path id="패스_7509" data-name="패스 7509" d="M104.789,93.777v29.291H72.939c-19.224,0-22.672-9.706-22.672-9.706L42.124,93.777Z" transform="translate(-11.8 -9.25)" fill="#03398e"/>
        </g>
        <path id="패스_7510" data-name="패스 7510" d="M161.538,65.061a53.259,53.259,0,0,0-47.456-29.106H80.366c-11.51,0-17.878,2.99-22.469,9.644C55,49.8,44.94,65.061,44.94,65.061h90.777a27.8,27.8,0,0,1,0,55.608H70.033s6.187,14.854,8.072,19.46c2.32,5.67,5.978,9.643,22.471,9.643h13.506a53.255,53.255,0,0,0,47.456-29.1c3.739-7.295,5.84-18.083,5.84-27.805C167.378,82.6,165.277,72.356,161.538,65.061Z" transform="translate(-10.464 -35.955)" fill="#1a74ff"/>
      </g>
    </g>
    <g id="그룹_25493" data-name="그룹 25493" transform="translate(1486.036 241.001)">
      <g id="그룹_25492" data-name="그룹 25492" transform="translate(0 0)" clip-path="url(#clip-path)">
        <g id="마스크_그룹_46" data-name="마스크 그룹 46" transform="translate(15.043 19.553)">
          <g id="그룹_4762" data-name="그룹 4762">
            <g id="그룹_4348" data-name="그룹 4348" transform="translate(57.671 14.094)">
              <path id="패스_7670" data-name="패스 7670" d="M109.629,90.468l36.363,21V79.915L109.629,58.922Z" transform="translate(-109.629 -58.922)" fill="#f7f1f1"/>
            </g>
            <g id="그룹_4350" data-name="그룹 4350" transform="translate(57.671 37.469)">
              <path id="패스_7672" data-name="패스 7672" d="M109.629,81.7l36.363,21V95.873l-36.363-21Z" transform="translate(-109.629 -74.877)" fill="#eae4e4"/>
            </g>
            <g id="그룹_4351" data-name="그룹 4351" transform="translate(57.671 38.213)">
              <path id="패스_7673" data-name="패스 7673" d="M109.629,82.811l36.363,21V96.379L109.629,75.385Z" transform="translate(-109.629 -75.385)" fill="#bdc0cd"/>
            </g>
            <g id="그룹_4374" data-name="그룹 4374" transform="translate(28.693)">
              <g id="그룹_4372" data-name="그룹 4372">
                <path id="패스_7709" data-name="패스 7709" d="M89.974,67.381l46.091,26.576L167.5,75.884,121.417,49.3Z" transform="translate(-89.974 -49.302)" fill="#fff"/>
              </g>
              <g id="그룹_4373" data-name="그룹 4373" transform="translate(2.459 1.406)">
                <path id="패스_7710" data-name="패스 7710" d="M91.642,66.934,135.273,92.11l28.99-16.674L120.626,50.262Z" transform="translate(-91.642 -50.262)" fill="#dfeafc"/>
              </g>
            </g>
            <g id="그룹_4375" data-name="그룹 4375" transform="translate(74.784 26.55)">
              <path id="패스_7711" data-name="패스 7711" d="M121.236,129.788l31.43-18.076V67.424L121.236,85.5Z" transform="translate(-121.236 -67.424)" fill="#6fa2f0"/>
            </g>
            <g id="그룹_4376" data-name="그룹 4376" transform="translate(74.784 61.725)">
              <path id="패스_7712" data-name="패스 7712" d="M121.236,117.264l31.43-18.075V91.433l-31.43,18.07Z" transform="translate(-121.236 -91.433)" fill="#0147b4"/>
            </g>
            <g id="그룹_4377" data-name="그룹 4377" transform="translate(28.693 18.05)">
              <path id="패스_7713" data-name="패스 7713" d="M89.974,105.9l46.091,26.584V88.2L89.974,61.622Z" transform="translate(-89.974 -61.622)" fill="#c6dcfd"/>
            </g>
            <g id="그룹_4378" data-name="그룹 4378" transform="translate(74.784 63.405)">
              <path id="패스_7714" data-name="패스 7714" d="M121.236,118.088l31.43-18.076V92.58l-31.43,18.072Z" transform="translate(-121.236 -92.58)" fill="#1a73fc"/>
            </g>
            <g id="그룹_4387" data-name="그룹 4387" transform="translate(77.941 44.165)">
              <g id="그룹_4386" data-name="그룹 4386">
                <path id="패스_7729" data-name="패스 7729" d="M123.377,94.005v4.553L148.5,84V79.447Z" transform="translate(-123.377 -79.447)" fill="#4387ef"/>
                <g id="그룹_4385" data-name="그룹 4385" transform="translate(4.292)">
                  <path id="패스_7730" data-name="패스 7730" d="M126.288,92.335l.523-.3V87.478l-.523.3Z" transform="translate(-126.288 -75.712)" fill="#4387ef"/>
                  <path id="패스_7731" data-name="패스 7731" d="M133.923,83.342l-.51.293V87.8l.51-.294Z" transform="translate(-122.908 -77.636)" fill="#4387ef"/>
                  <path id="패스_7732" data-name="패스 7732" d="M130.363,85.422l-.509.289V90l.509-.294Z" transform="translate(-124.597 -76.668)" fill="#4387ef"/>
                  <path id="패스_7733" data-name="패스 7733" d="M140.131,84.248l.425-.245V79.447l-.425.242Z" transform="translate(-119.722 -79.447)" fill="#4387ef"/>
                  <path id="패스_7734" data-name="패스 7734" d="M137.485,81.252l-.517.292v4.416l.517-.292Z" transform="translate(-121.222 -78.608)" fill="#4387ef"/>
                </g>
                <path id="패스_7735" data-name="패스 7735" d="M123.377,97.331,148.5,82.776v-.689l-25.126,14.56Z" transform="translate(-123.377 -78.219)" fill="#4387ef"/>
              </g>
            </g>
            <g id="그룹_4390" data-name="그룹 4390" transform="translate(77.941 37.841)">
              <g id="그룹_4389" data-name="그룹 4389">
                <path id="패스_7736" data-name="패스 7736" d="M123.377,89.695v4.551L148.5,79.7V75.132Z" transform="translate(-123.377 -75.131)" fill="#4387ef"/>
                <g id="그룹_4388" data-name="그룹 4388" transform="translate(4.292)">
                  <path id="패스_7737" data-name="패스 7737" d="M126.288,88.019l.523-.3V83.168l-.523.295Z" transform="translate(-126.288 -71.393)" fill="#4387ef"/>
                  <path id="패스_7738" data-name="패스 7738" d="M133.923,79.029l-.51.294v4.164l.51-.29Z" transform="translate(-122.908 -73.318)" fill="#4387ef"/>
                  <path id="패스_7739" data-name="패스 7739" d="M130.363,81.108l-.509.294v4.281l.509-.289Z" transform="translate(-124.597 -72.351)" fill="#4387ef"/>
                  <path id="패스_7740" data-name="패스 7740" d="M140.131,79.935l.425-.239V75.131l-.425.245Z" transform="translate(-119.722 -75.131)" fill="#4387ef"/>
                  <path id="패스_7741" data-name="패스 7741" d="M137.485,76.938l-.517.3V81.65l.517-.3Z" transform="translate(-121.222 -74.291)" fill="#4387ef"/>
                </g>
                <path id="패스_7742" data-name="패스 7742" d="M123.377,93.016,148.5,78.465v-.687L123.377,92.333Z" transform="translate(-123.377 -73.9)" fill="#4387ef"/>
              </g>
            </g>
            <g id="그룹_4393" data-name="그룹 4393" transform="translate(77.941 31.556)">
              <g id="그룹_4392" data-name="그룹 4392">
                <path id="패스_7743" data-name="패스 7743" d="M123.377,85.4v4.553L148.5,75.4V70.842Z" transform="translate(-123.377 -70.841)" fill="#4387ef"/>
                <g id="그룹_4391" data-name="그룹 4391" transform="translate(4.292)">
                  <path id="패스_7744" data-name="패스 7744" d="M126.288,83.73l.523-.3V78.876l-.523.294Z" transform="translate(-126.288 -67.104)" fill="#4387ef"/>
                  <path id="패스_7745" data-name="패스 7745" d="M133.923,74.737l-.51.294V79.2l.51-.294Z" transform="translate(-122.908 -69.029)" fill="#4387ef"/>
                  <path id="패스_7746" data-name="패스 7746" d="M130.363,76.814l-.509.294v4.285l.509-.3Z" transform="translate(-124.597 -68.063)" fill="#4387ef"/>
                  <path id="패스_7747" data-name="패스 7747" d="M140.131,75.645l.425-.243V70.841l-.425.242Z" transform="translate(-119.722 -70.841)" fill="#4387ef"/>
                  <path id="패스_7748" data-name="패스 7748" d="M137.485,72.647l-.517.292v4.416l.517-.286Z" transform="translate(-121.222 -70.001)" fill="#4387ef"/>
                </g>
                <path id="패스_7749" data-name="패스 7749" d="M123.377,88.724,148.5,74.17v-.684L123.377,88.044Z" transform="translate(-123.377 -69.611)" fill="#4387ef"/>
              </g>
            </g>
            <g id="그룹_4396" data-name="그룹 4396" transform="translate(53.62 5.734)">
              <path id="패스_7750" data-name="패스 7750" d="M118.18,58.483l-1.808,7.551,8.856.127,5.476-2.914-11.485-6.435Z" transform="translate(-102.379 -51.543)" fill="#d3d4d4" opacity="0.33" style="isolation: isolate"/>
              <g id="그룹_4394" data-name="그룹 4394">
                <path id="패스_7751" data-name="패스 7751" d="M120.8,65.779,106.881,57.8l7.985-4.581L128.785,61.2Z" transform="translate(-106.881 -53.216)" fill="#fff"/>
                <path id="패스_7752" data-name="패스 7752" d="M124.307,60.546l-7.985,4.578V63.243l7.985-4.575Z" transform="translate(-102.403 -50.68)" fill="#1970f7"/>
                <path id="패스_7753" data-name="패스 7753" d="M120.8,66.206l-13.919-7.982V56.343L120.8,64.325Z" transform="translate(-106.881 -51.762)" fill="#498bef"/>
              </g>
              <path id="패스_7754" data-name="패스 7754" d="M116.775,57.567l-1.125,4.7,3.789-.13,3.962-2.256-5.977-3.364Z" transform="translate(-102.722 -51.68)" fill="#d3d4d4" opacity="0.33" style="isolation: isolate"/>
              <g id="그룹_4395" data-name="그룹 4395" transform="translate(3.88 1.171)">
                <path id="패스_7755" data-name="패스 7755" d="M118.524,61.8l-9.011-5.175,4.562-2.614,9.014,5.175Z" transform="translate(-109.513 -54.015)" fill="#fff"/>
                <path id="패스_7756" data-name="패스 7756" d="M120.19,59.175l-4.565,2.617V60.161l4.565-2.614Z" transform="translate(-106.614 -52.372)" fill="#1970f7"/>
                <path id="패스_7757" data-name="패스 7757" d="M118.524,62.6l-9.011-5.172V55.8l9.011,5.175Z" transform="translate(-109.513 -53.185)" fill="#498bef"/>
              </g>
            </g>
            <g id="그룹_4398" data-name="그룹 4398" transform="translate(43.112 15.637)">
              <path id="패스_7758" data-name="패스 7758" d="M112.662,61.791a9.006,9.006,0,0,0-4.442-1.03,1.9,1.9,0,0,0-.364-.019l-.119.01-.088.009-.394.04a.329.329,0,0,1-.053.006l-5.975.623,1.283,2.206c-.257,1.042.314,2.157,1.735,2.978l4.1.278,3.671-1.286c.1-.056.167-.107.252-.157.17-.079.355-.148.515-.239C115.1,63.877,115.054,63.163,112.662,61.791Z" transform="translate(-99.056 -59.619)" fill="#d3d4d4" opacity="0.33" style="isolation: isolate"/>
              <path id="패스_7759" data-name="패스 7759" d="M110,61.021a9.481,9.481,0,0,0-8.523-.067c-2.322,1.333-2.272,3.521.118,4.893a9.485,9.485,0,0,0,8.523.064C112.44,64.575,112.393,62.394,110,61.021Z" transform="translate(-99.746 -59.975)" fill="#cfdef5"/>
              <path id="패스_7760" data-name="패스 7760" d="M110,61.021a9.481,9.481,0,0,0-8.523-.067c-2.322,1.333-2.272,3.521.118,4.893a9.485,9.485,0,0,0,8.523.064C112.44,64.575,112.393,62.394,110,61.021Zm-6.835-.447h5.256a.316.316,0,1,1,0,.633h-5.256a.316.316,0,1,1,0-.633ZM101.4,61.592h8.974a.394.394,0,0,1,.392.393h0a.387.387,0,0,1-.388.387H101.4a.388.388,0,0,1-.394-.384v0a.4.4,0,0,1,.394-.394Zm7.205,4.745h-5.257c-.174,0-.315-.186-.315-.418s.142-.422.315-.422h5.257c.177,0,.318.188.318.422s-.142.418-.318.418Zm1.8-1.278h-8.971a.462.462,0,0,1-.4-.513c0-.29.174-.523.4-.523H110.4c.218,0,.391.233.391.523s-.173.513-.391.513Zm.725-1.486H100.552a.42.42,0,1,1,0-.839h10.577a.42.42,0,1,1,0,.839Z" transform="translate(-99.746 -59.975)" fill="#fff"/>
              <g id="그룹_4397" data-name="그룹 4397" transform="translate(0 3.32)">
                <path id="패스_7761" data-name="패스 7761" d="M111.857,62.386l.01,1.056a2.782,2.782,0,0,1-1.772,2.319,10.124,10.124,0,0,1-8.57,0A2.805,2.805,0,0,1,99.754,63.5l.031-1.259a3.2,3.2,0,0,0,1.769,2.546,10.085,10.085,0,0,0,8.541.04A2.909,2.909,0,0,0,111.857,62.386Z" transform="translate(-99.754 -62.241)" fill="#1a72fb"/>
              </g>
            </g>
            <g id="그룹_4400" data-name="그룹 4400" transform="translate(66.029 28.899)">
              <path id="패스_7762" data-name="패스 7762" d="M128.206,70.848a8.953,8.953,0,0,0-4.442-1.034,2.152,2.152,0,0,0-.363-.021l-.119.009-.091.015-.394.038a.188.188,0,0,1-.05.006l-5.978.624,1.284,2.2c-.258,1.045.313,2.154,1.735,2.981l4.1.274,3.668-1.285c.1-.05.17-.1.254-.154a4.216,4.216,0,0,0,.515-.242C130.646,72.93,130.6,72.216,128.206,70.848Z" transform="translate(-114.601 -68.671)" fill="#d3d4d4" opacity="0.33" style="isolation: isolate"/>
              <path id="패스_7763" data-name="패스 7763" d="M125.544,70.076A9.476,9.476,0,0,0,117.021,70c-2.321,1.336-2.269,3.523.121,4.893a9.479,9.479,0,0,0,8.52.067C127.986,73.63,127.934,71.444,125.544,70.076Z" transform="translate(-115.29 -69.027)" fill="#cfdef5"/>
              <path id="패스_7764" data-name="패스 7764" d="M125.544,70.076A9.476,9.476,0,0,0,117.021,70c-2.321,1.336-2.269,3.523.121,4.893a9.479,9.479,0,0,0,8.52.067C127.986,73.63,127.934,71.444,125.544,70.076Zm-6.836-.448h5.26a.316.316,0,1,1,0,.631h-5.26a.316.316,0,1,1,0-.631Zm-1.762,1.02h8.97a.39.39,0,1,1,0,.781h-8.97a.39.39,0,1,1,0-.781Zm7.2,4.747h-5.259c-.177,0-.313-.19-.313-.423s.136-.419.313-.419h5.259c.175,0,.317.192.317.419s-.142.423-.317.423Zm1.8-1.278h-8.971a.467.467,0,0,1-.392-.516c0-.29.174-.52.392-.52h8.971c.221,0,.4.23.4.52a.467.467,0,0,1-.4.516Zm.724-1.487H116.1a.42.42,0,1,1-.018-.839h10.59a.42.42,0,1,1,.018.839Z" transform="translate(-115.29 -69.027)" fill="#fff"/>
              <g id="그룹_4399" data-name="그룹 4399" transform="translate(0 3.32)">
                <path id="패스_7765" data-name="패스 7765" d="M127.4,71.437l.009,1.058a2.779,2.779,0,0,1-1.774,2.321,10.118,10.118,0,0,1-8.567,0,2.806,2.806,0,0,1-1.768-2.261l.029-1.261a3.187,3.187,0,0,0,1.768,2.548,10.1,10.1,0,0,0,8.539.041A2.908,2.908,0,0,0,127.4,71.437Z" transform="translate(-115.298 -71.293)" fill="#1a72fb"/>
              </g>
            </g>
            <g id="그룹_4403" data-name="그룹 4403" transform="translate(28.686 53.26)">
              <g id="그룹_4401" data-name="그룹 4401">
                <path id="패스_7766" data-name="패스 7766" d="M89.969,93.44l46.1,26.538v-7.791l-46.1-26.532Z" transform="translate(-89.969 -85.655)" fill="#a2c7ff"/>
              </g>
              <g id="그룹_4402" data-name="그룹 4402" transform="translate(0 1.711)">
                <path id="패스_7767" data-name="패스 7767" d="M89.969,94.245l46.1,26.535v-7.425l-46.1-26.532Z" transform="translate(-89.969 -86.823)" fill="#cfdef5"/>
              </g>
            </g>
            <g id="그룹_4413" data-name="그룹 4413" transform="translate(0 30.869)">
              <g id="그룹_4412" data-name="그룹 4412">
                <path id="패스_7774" data-name="패스 7774" d="M70.512,87.028l36.366,20.989,28.959-16.65L99.481,70.372Z" transform="translate(-70.512 -70.372)" fill="#fff"/>
              </g>
            </g>
            <g id="그룹_4415" data-name="그룹 4415" transform="translate(2.272 32.18)">
              <g id="그룹_4414" data-name="그룹 4414">
                <path id="패스_7775" data-name="패스 7775" d="M72.053,86.76l33.836,19.534L132.832,90.8,99.007,71.267Z" transform="translate(-72.053 -71.267)" fill="#dfeafc"/>
              </g>
            </g>
            <g id="그룹_4416" data-name="그룹 4416" transform="translate(36.364 51.834)">
              <path id="패스_7776" data-name="패스 7776" d="M95.177,132.881l28.879-16.656V84.682L95.177,101.335Z" transform="translate(-95.177 -84.682)" fill="#6fa2f0"/>
            </g>
            <g id="그룹_4417" data-name="그룹 4417" transform="translate(36.364 74.335)">
              <path id="패스_7777" data-name="패스 7777" d="M95.177,124.389l28.879-16.684V100.04L95.177,116.721Z" transform="translate(-95.177 -100.04)" fill="#0147b4"/>
            </g>
            <g id="그룹_4418" data-name="그룹 4418" transform="translate(0 47.495)">
              <path id="패스_7778" data-name="패스 7778" d="M70.512,113.266l36.366,21V102.716l-36.366-21Z" transform="translate(-70.512 -81.72)" fill="#c6dcfd"/>
            </g>
            <g id="그룹_4419" data-name="그룹 4419" transform="translate(36.364 75.924)">
              <path id="패스_7779" data-name="패스 7779" d="M95.177,125.236l28.879-16.681v-7.429L95.177,117.8Z" transform="translate(-95.177 -101.125)" fill="#03398e"/>
            </g>
            <g id="그룹_4426" data-name="그룹 4426" transform="translate(0 70.054)">
              <path id="패스_7786" data-name="패스 7786" d="M70.512,104.752l36.366,21V118.11L70.512,97.118Z" transform="translate(-70.512 -97.118)" fill="#03398e"/>
            </g>
            <g id="그룹_4427" data-name="그룹 4427" transform="translate(0 71.616)">
              <path id="패스_7787" data-name="패스 7787" d="M70.512,105.609l36.366,21v-7.431L70.512,98.184Z" transform="translate(-70.512 -98.184)" fill="#0147b4"/>
            </g>
            <g id="그룹_4439" data-name="그룹 4439" transform="translate(38.322 64.155)">
              <path id="패스_7795" data-name="패스 7795" d="M96.5,107.651V112.2l25.127-14.547V93.093Z" transform="translate(-96.505 -93.092)" fill="#498bef"/>
              <g id="그룹_4437" data-name="그룹 4437" transform="translate(4.292)">
                <g id="그룹_4432" data-name="그룹 4432" transform="translate(0 11.765)">
                  <path id="패스_7796" data-name="패스 7796" d="M99.416,105.98l.522-.3v-4.561l-.522.3Z" transform="translate(-99.416 -101.122)" fill="#498bef"/>
                </g>
                <g id="그룹_4433" data-name="그룹 4433" transform="translate(10.503 5.705)">
                  <path id="패스_7797" data-name="패스 7797" d="M107.055,96.986l-.515.292v4.165l.515-.292Z" transform="translate(-106.54 -96.986)" fill="#498bef"/>
                </g>
                <g id="그룹_4434" data-name="그룹 4434" transform="translate(5.259 8.751)">
                  <path id="패스_7798" data-name="패스 7798" d="M103.492,99.065l-.509.3v4.281l.509-.294Z" transform="translate(-102.983 -99.065)" fill="#498bef"/>
                </g>
                <g id="그룹_4435" data-name="그룹 4435" transform="translate(20.412)">
                  <path id="패스_7799" data-name="패스 7799" d="M113.261,97.893l.422-.239V93.092l-.422.236Z" transform="translate(-113.261 -93.092)" fill="#498bef"/>
                </g>
                <g id="그룹_4436" data-name="그룹 4436" transform="translate(15.752 2.644)">
                  <path id="패스_7800" data-name="패스 7800" d="M110.613,94.9l-.513.293v4.416l.513-.292Z" transform="translate(-110.1 -94.897)" fill="#498bef"/>
                </g>
              </g>
              <g id="그룹_4438" data-name="그룹 4438" transform="translate(0 3.872)">
                <path id="패스_7801" data-name="패스 7801" d="M96.5,110.973l25.127-14.548v-.69L96.5,110.293Z" transform="translate(-96.505 -95.735)" fill="#498bef"/>
              </g>
            </g>
            <g id="그룹_4443" data-name="그룹 4443" transform="translate(38.322 57.133)">
              <path id="패스_7802" data-name="패스 7802" d="M96.5,102.857v4.553l25.127-14.55V88.3Z" transform="translate(-96.505 -88.299)" fill="#498bef"/>
              <g id="그룹_4441" data-name="그룹 4441" transform="translate(4.292)">
                <path id="패스_7803" data-name="패스 7803" d="M99.416,101.19l.522-.3V96.332l-.522.3Z" transform="translate(-99.416 -84.563)" fill="#498bef"/>
                <path id="패스_7804" data-name="패스 7804" d="M107.055,92.195l-.515.292v4.165l.515-.292Z" transform="translate(-96.037 -86.487)" fill="#498bef"/>
                <path id="패스_7805" data-name="패스 7805" d="M103.492,94.274l-.509.292v4.287l.509-.3Z" transform="translate(-97.724 -85.52)" fill="#498bef"/>
                <path id="패스_7806" data-name="패스 7806" d="M113.261,93.1l.422-.239V88.3l-.422.242Z" transform="translate(-92.849 -88.299)" fill="#498bef"/>
                <path id="패스_7807" data-name="패스 7807" d="M110.613,90.106l-.513.292v4.419l.513-.294Z" transform="translate(-94.348 -87.459)" fill="#498bef"/>
              </g>
              <g id="그룹_4442" data-name="그룹 4442" transform="translate(0 3.874)">
                <path id="패스_7808" data-name="패스 7808" d="M96.5,106.181l25.127-14.55v-.689L96.5,105.5Z" transform="translate(-96.505 -90.943)" fill="#498bef"/>
              </g>
            </g>
            <g id="그룹_4448" data-name="그룹 4448" transform="translate(2.082 52.949)">
              <g id="그룹_4447" data-name="그룹 4447">
                <path id="패스_7809" data-name="패스 7809" d="M71.924,85.443V90l31.131,17.843v-4.553Z" transform="translate(-71.924 -85.443)" fill="#fff"/>
                <g id="그룹_4445" data-name="그룹 4445">
                  <path id="패스_7810" data-name="패스 7810" d="M86.224,98.266l-.523-.3V93.411l.523.3Z" transform="translate(-65.389 -81.737)" fill="#fff"/>
                  <path id="패스_7811" data-name="패스 7811" d="M89.575,100.211l-.522-.3V95.353l.522.3Z" transform="translate(-63.799 -80.834)" fill="#fff"/>
                  <path id="패스_7812" data-name="패스 7812" d="M93.4,102.392l-.519-.3V97.532l.519.3Z" transform="translate(-61.985 -79.821)" fill="#fff"/>
                  <path id="패스_7813" data-name="패스 7813" d="M78.584,89.341l.513.286v4.167l-.513-.293Z" transform="translate(-68.765 -83.63)" fill="#fff"/>
                  <path id="패스_7814" data-name="패스 7814" d="M82.144,91.414l.509.3v4.278l-.509-.292Z" transform="translate(-67.076 -82.666)" fill="#fff"/>
                  <path id="패스_7815" data-name="패스 7815" d="M72.347,90.241,71.924,90V85.443l.423.242Z" transform="translate(-71.924 -85.443)" fill="#fff"/>
                  <path id="패스_7816" data-name="패스 7816" d="M75.025,87.246l.515.3v4.416l-.515-.292Z" transform="translate(-70.453 -84.604)" fill="#fff"/>
                </g>
                <g id="그룹_4446" data-name="그룹 4446" transform="translate(0 3.875)">
                  <path id="패스_7817" data-name="패스 7817" d="M103.055,106.615,71.924,88.772v-.684l31.131,17.849Z" transform="translate(-71.924 -88.088)" fill="#fff"/>
                </g>
              </g>
            </g>
            <g id="그룹_4483" data-name="그룹 4483" transform="translate(21.892 36.016)">
              <path id="패스_7844" data-name="패스 7844" d="M96.659,79.149,94.85,86.706l8.861.122,5.47-2.917L97.7,77.482Z" transform="translate(-80.86 -72.212)" fill="#d3d4d4" opacity="0.33" style="isolation: isolate"/>
              <g id="그룹_4481" data-name="그룹 4481">
                <path id="패스_7845" data-name="패스 7845" d="M99.279,86.448,85.361,78.466l7.984-4.581,13.921,7.988Z" transform="translate(-85.361 -73.885)" fill="#fff"/>
                <path id="패스_7846" data-name="패스 7846" d="M102.787,81.214,94.8,85.794V83.912l7.986-4.575Z" transform="translate(-80.883 -71.349)" fill="#1970f7"/>
                <path id="패스_7847" data-name="패스 7847" d="M99.279,86.875,85.361,78.89V77.012l13.918,7.982Z" transform="translate(-85.361 -72.431)" fill="#498bef"/>
              </g>
              <path id="패스_7848" data-name="패스 7848" d="M95.255,78.232l-1.126,4.7,3.786-.129,3.962-2.255L95.9,77.19Z" transform="translate(-81.202 -72.348)" opacity="0.33" fill="url(#linear-gradient)" style="isolation: isolate"/>
              <g id="그룹_4482" data-name="그룹 4482" transform="translate(3.88 1.168)">
                <path id="패스_7849" data-name="패스 7849" d="M97,82.472l-9.01-5.17,4.56-2.62,9.014,5.175Z" transform="translate(-87.993 -74.682)" fill="#fff"/>
                <path id="패스_7850" data-name="패스 7850" d="M98.669,79.842,94.1,82.458V80.829l4.565-2.615Z" transform="translate(-85.094 -73.039)" fill="#1970f7"/>
                <path id="패스_7851" data-name="패스 7851" d="M97,83.269,87.993,78.1V76.47L97,81.64Z" transform="translate(-87.993 -73.85)" fill="#498bef"/>
              </g>
            </g>
            <g id="그룹_4485" data-name="그룹 4485" transform="translate(10.379 44.164)">
              <path id="패스_7852" data-name="패스 7852" d="M90.458,81.27a8.96,8.96,0,0,0-4.441-1.039c-.119-.009-.245-.023-.363-.021l-.116.012-.091.009-.394.041a.24.24,0,0,1-.055.006l-5.977.621L80.3,83.1c-.254,1.048.314,2.162,1.737,2.984l4.1.281,3.671-1.292c.093-.05.164-.1.249-.149a4.828,4.828,0,0,0,.515-.242C92.9,83.348,92.853,82.637,90.458,81.27Z" transform="translate(-76.855 -79.091)" fill="#d3d4d4" opacity="0.33" style="isolation: isolate"/>
              <path id="패스_7853" data-name="패스 7853" d="M87.8,80.492a9.49,9.49,0,0,0-8.523-.067c-2.321,1.332-2.269,3.521.119,4.893a9.492,9.492,0,0,0,8.522.067C90.235,84.046,90.188,81.862,87.8,80.492Z" transform="translate(-77.544 -79.447)" fill="#cfdef5"/>
              <path id="패스_7854" data-name="패스 7854" d="M87.8,80.492a9.49,9.49,0,0,0-8.523-.067c-2.321,1.332-2.269,3.521.119,4.893a9.492,9.492,0,0,0,8.522.067C90.235,84.046,90.188,81.862,87.8,80.492Zm-6.835-.447h5.256a.312.312,0,0,1,.317.309v0a.318.318,0,0,1-.313.322h-5.26a.319.319,0,0,1-.317-.318v0a.313.313,0,0,1,.313-.312ZM79.2,81.067h8.973a.388.388,0,1,1,.016.777H79.2a.388.388,0,0,1,0-.777ZM86.4,85.811H81.142c-.173,0-.313-.19-.313-.42s.14-.419.313-.419H86.4c.178,0,.317.188.317.419s-.139.42-.317.42Zm1.8-1.278H79.228c-.218,0-.392-.233-.392-.519s.174-.52.392-.52H88.2c.221,0,.391.234.391.52s-.17.519-.391.519Zm.725-1.489H78.348a.418.418,0,1,1,0-.837H88.925a.418.418,0,1,1,0,.837Z" transform="translate(-77.544 -79.447)" fill="#fff"/>
              <g id="그룹_4484" data-name="그룹 4484" transform="translate(0 3.319)">
                <path id="패스_7855" data-name="패스 7855" d="M89.65,81.861l.012,1.052a2.789,2.789,0,0,1-1.774,2.322,10.132,10.132,0,0,1-8.569,0,2.8,2.8,0,0,1-1.768-2.261l.031-1.263a3.184,3.184,0,0,0,1.766,2.546,10.071,10.071,0,0,0,8.539.041A2.909,2.909,0,0,0,89.65,81.861Z" transform="translate(-77.552 -81.712)" fill="#1a72fb"/>
              </g>
            </g>
            <g id="그룹_4599" data-name="그룹 4599" transform="translate(2.082 60.6)">
              <g id="그룹_4447-2" data-name="그룹 4447-2">
                <path id="패스_7809-2" data-name="패스 7809-2" d="M71.924,90.665v4.559l31.131,17.843v-4.553Z" transform="translate(-71.924 -90.665)" fill="#fff"/>
                <g id="그룹_4445-2" data-name="그룹 4445-2">
                  <path id="패스_7810-2" data-name="패스 7810-2" d="M86.224,103.488l-.523-.3V98.633l.523.3Z" transform="translate(-65.389 -86.959)" fill="#fff"/>
                  <path id="패스_7811-2" data-name="패스 7811-2" d="M89.575,105.433l-.522-.3v-4.561l.522.3Z" transform="translate(-63.799 -86.056)" fill="#fff"/>
                  <path id="패스_7812-2" data-name="패스 7812-2" d="M93.4,107.614l-.519-.3v-4.556l.519.3Z" transform="translate(-61.985 -85.043)" fill="#fff"/>
                  <path id="패스_7813-2" data-name="패스 7813-2" d="M78.584,94.563l.513.286v4.167l-.513-.293Z" transform="translate(-68.765 -88.852)" fill="#fff"/>
                  <path id="패스_7814-2" data-name="패스 7814-2" d="M82.144,96.636l.509.3v4.278l-.509-.292Z" transform="translate(-67.076 -87.888)" fill="#fff"/>
                  <path id="패스_7815-2" data-name="패스 7815-2" d="M72.347,95.463l-.423-.239V90.665l.423.242Z" transform="translate(-71.924 -90.665)" fill="#fff"/>
                  <path id="패스_7816-2" data-name="패스 7816-2" d="M75.025,92.468l.515.3V97.18l-.515-.292Z" transform="translate(-70.453 -89.826)" fill="#fff"/>
                </g>
                <g id="그룹_4446-2" data-name="그룹 4446-2" transform="translate(0 3.875)">
                  <path id="패스_7817-2" data-name="패스 7817-2" d="M103.055,111.837,71.924,93.994V93.31l31.131,17.849Z" transform="translate(-71.924 -93.31)" fill="#fff"/>
                </g>
              </g>
            </g>
            <g id="그룹_4600" data-name="그룹 4600" transform="translate(77.941 44.165)">
              <g id="그룹_4386-2" data-name="그룹 4386-2">
                <g id="그룹_4385-2" data-name="그룹 4385-2" transform="translate(4.292)">
                  <path id="패스_7730-2" data-name="패스 7730-2" d="M126.288,92.335l.523-.3V87.478l-.523.3Z" transform="translate(-126.288 -75.712)" fill="#4387ef"/>
                  <path id="패스_7731-2" data-name="패스 7731-2" d="M133.923,83.342l-.51.293V87.8l.51-.294Z" transform="translate(-122.908 -77.636)" fill="#4387ef"/>
                  <path id="패스_7732-2" data-name="패스 7732-2" d="M130.363,85.422l-.509.289V90l.509-.294Z" transform="translate(-124.597 -76.668)" fill="#4387ef"/>
                  <path id="패스_7733-2" data-name="패스 7733-2" d="M140.131,84.248l.425-.245V79.447l-.425.242Z" transform="translate(-119.722 -79.447)" fill="#4387ef"/>
                  <path id="패스_7734-2" data-name="패스 7734-2" d="M137.485,81.252l-.517.292v4.416l.517-.292Z" transform="translate(-121.222 -78.608)" fill="#4387ef"/>
                </g>
                <path id="패스_7735-2" data-name="패스 7735-2" d="M123.377,97.331,148.5,82.776v-.689l-25.126,14.56Z" transform="translate(-123.377 -78.219)" fill="#4387ef"/>
              </g>
            </g>
            <path id="패스_7945" data-name="패스 7945" d="M114.76,84.677l9.511,5.7v31.462l-9.54-5.57Z" transform="translate(-49.537 -32.85)" fill="#6fa2f0" opacity="0.435" style="isolation: isolate"/>
          </g>
        </g>
      </g>
    </g>
  </g>
</svg>
