<svg xmlns="http://www.w3.org/2000/svg" width="30" height="22.002" viewBox="0 0 30 22.002">
  <g id="Group_22641" data-name="Group 22641" transform="translate(41.837 -14.329)">
    <g id="Group_4142" data-name="Group 4142" transform="translate(-41.837 14.329)">
      <g id="Group_4140" data-name="Group 4140">
        <path id="Path_7505" data-name="Path 7505" d="M-13.269,18.958c-.869-1.712-3.251-2.476-4.871-3.474-1.555-.954-5.783-1.154-7.737-1.154h-6.3c-3.674,0-4.3,1.737-4.3,1.737l1.717,3.763h13.181a5.542,5.542,0,0,1,5.444,5.5,5.3,5.3,0,0,1-5.386,5.213l-.058,0H-34.187l2.292,4.053s-.235,1.736,3.439,1.736h2.579c3.991,0,10.907-1.564,12.608-4.921a16.167,16.167,0,0,0,1.432-6.079A17.246,17.246,0,0,0-13.269,18.958Z" transform="translate(41.495 -14.329)" fill="#003f8e"/>
        <path id="Path_7507" data-name="Path 7507" d="M-26.477,19.684V14.33h-1.974c-3.616,0-4.23,1.692-4.23,1.692l-1.692,3.666Z" transform="translate(41.723 -14.329)" fill="#0092c8"/>
        <g id="Group_4135" data-name="Group 4135" transform="translate(0 0.001)">
          <path id="Path_7508" data-name="Path 7508" d="M-40.709,14.33h-1.128L-40.427,18a3.211,3.211,0,0,0,3.1,1.692h8.741l1.13-5.358" transform="translate(41.837 -14.33)" fill="#003073"/>
          <path id="Path_7509" data-name="Path 7509" d="M-24.354,30.687v5.64h-5.921c-3.616,0-4.23-1.692-4.23-1.692L-36.2,30.687Z" transform="translate(41.837 -14.33)" fill="#003073"/>
        </g>
        <path id="Path_7510" data-name="Path 7510" d="M-12.969,19.83a9.884,9.884,0,0,0-3.674-4.053,9.275,9.275,0,0,0-5.083-1.447h-6.5c-2.189,0-3.365.444-4.237,1.737l-2.544,3.763h17.238a5.507,5.507,0,0,1,5.369,5.5,5.259,5.259,0,0,1-5.308,5.213l-.061,0H-30.207s1.054,3.158,1.413,4.053c.441,1.1,1.1,1.737,4.237,1.737h2.831a9.839,9.839,0,0,0,8.761-5.789,12.045,12.045,0,0,0,1.126-5.212A13.052,13.052,0,0,0-12.969,19.83Z" transform="translate(41.837 -14.329)" fill="#1657a3"/>
      </g>
    </g>
  </g>
</svg>
