<svg xmlns="http://www.w3.org/2000/svg" width="20" height="20" viewBox="0 0 20 20">
  <g id="그룹_26390" data-name="그룹 26390" transform="translate(7252 4389)">
    <path id="패스_69257" data-name="패스 69257" d="M16.752,78.1c-.408-.088-.82-.162-1.222-.267a8.017,8.017,0,0,1-1.236-15.059.75.75,0,0,1,.8.054.706.706,0,0,1,.285.722c-.052.332-.3.486-.576.617a6.4,6.4,0,0,0-3.235,3.318,6.548,6.548,0,1,0,8.738-3.335c-.425-.2-.582-.428-.551-.805a.648.648,0,0,1,.534-.626.988.988,0,0,1,.582.08,7.722,7.722,0,0,1,4.61,6.161,7.91,7.91,0,0,1-5.063,8.61,15.6,15.6,0,0,1-1.841.465c-.064.017-.126.042-.189.063Zm.08-10.958a.748.748,0,0,0,.742.775.741.741,0,0,0,.734-.748q.016-2.9,0-5.8a.721.721,0,0,0-.691-.747.742.742,0,0,0-.789.822c-.006.943,0,1.887,0,2.831S16.821,66.186,16.833,67.141Z" transform="translate(-7259.569 -4448.361)" fill="#fff"/>
    <rect id="사각형_8815" data-name="사각형 8815" width="20" height="20" transform="translate(-7252 -4389)" fill="none"/>
  </g>
</svg>
