<svg xmlns="http://www.w3.org/2000/svg" width="175" height="22.002" viewBox="0 0 175 22.002">
  <g id="그룹_27749" data-name="그룹 27749" transform="translate(-25 -38.999)">
    <g id="Group_4140" data-name="Group 4140" transform="translate(25 38.999)">
      <path id="Path_7505" data-name="Path 7505" d="M-13.269,18.958c-.869-1.712-3.251-2.476-4.871-3.474-1.555-.954-5.783-1.154-7.737-1.154h-6.3c-3.674,0-4.3,1.737-4.3,1.737l1.717,3.763h13.181a5.542,5.542,0,0,1,5.444,5.5,5.3,5.3,0,0,1-5.386,5.213l-.058,0H-34.187l2.292,4.053s-.235,1.736,3.439,1.736h2.579c3.991,0,10.907-1.564,12.608-4.921a16.167,16.167,0,0,0,1.432-6.079A17.246,17.246,0,0,0-13.269,18.958Z" transform="translate(41.495 -14.329)" fill="#003f8e"/>
      <path id="Path_7507" data-name="Path 7507" d="M-26.477,19.684V14.33h-1.974c-3.616,0-4.23,1.692-4.23,1.692l-1.692,3.666Z" transform="translate(41.723 -14.329)" fill="#0092c8"/>
      <g id="Group_4135" data-name="Group 4135" transform="translate(0 0.001)">
        <path id="Path_7508" data-name="Path 7508" d="M-40.709,14.33h-1.128L-40.427,18a3.211,3.211,0,0,0,3.1,1.692h8.741l1.13-5.358" transform="translate(41.837 -14.33)" fill="#003073"/>
        <path id="Path_7509" data-name="Path 7509" d="M-24.354,30.687v5.64h-5.921c-3.616,0-4.23-1.692-4.23-1.692L-36.2,30.687Z" transform="translate(41.837 -14.33)" fill="#003073"/>
      </g>
      <path id="Path_7510" data-name="Path 7510" d="M-12.969,19.83a9.884,9.884,0,0,0-3.674-4.053,9.275,9.275,0,0,0-5.083-1.447h-6.5c-2.189,0-3.365.444-4.237,1.737l-2.544,3.763h17.238a5.507,5.507,0,0,1,5.369,5.5,5.259,5.259,0,0,1-5.308,5.213l-.061,0H-30.207s1.054,3.158,1.413,4.053c.441,1.1,1.1,1.737,4.237,1.737h2.831a9.839,9.839,0,0,0,8.761-5.789,12.045,12.045,0,0,0,1.126-5.212A13.052,13.052,0,0,0-12.969,19.83Z" transform="translate(41.837 -14.329)" fill="#1657a3"/>
    </g>
    <path id="Path_7526" data-name="Path 7526" d="M-125.321-14.778a4.2,4.2,0,0,1-4.259-4.129c0-.032,0-.064,0-.1a4.423,4.423,0,0,1,4.259-4.489,4.749,4.749,0,0,1,2.928,1.057l1.863-2.113a7.646,7.646,0,0,0-4.8-1.584,7,7,0,0,0-6.922,7.069V-19a6.772,6.772,0,0,0,6.677,6.867c.081,0,.163,0,.244,0a7.646,7.646,0,0,0,4.8-1.584l-1.863-2.113A4.742,4.742,0,0,1-125.321-14.778Z" transform="translate(212.248 69.134)" fill="#fff"/>
    <path id="Path_7528" data-name="Path 7528" d="M-92.5-14.778A4.428,4.428,0,0,1-97.027-19,4.655,4.655,0,0,1-92.5-23.492a4.028,4.028,0,0,1,2.662,1.057l1.863-2.113A6.91,6.91,0,0,0-92.5-26.132,7.222,7.222,0,0,0-99.69-19a7,7,0,0,0,7.13,6.867h.058a6.906,6.906,0,0,0,4.525-1.584l-1.863-2.113A4.024,4.024,0,0,1-92.5-14.778Z" transform="translate(208.022 69.133)" fill="#fff"/>
    <path id="패스_69258" data-name="패스 69258" d="M-110.372-23.493A4.649,4.649,0,0,1-105.856-19a4.423,4.423,0,0,1-4.516,4.225,4.191,4.191,0,0,1-4.251-4.129c0-.032,0-.064,0-.1a4.419,4.419,0,0,1,4.251-4.489m0-2.641a6.989,6.989,0,0,0-6.909,7.069V-19a6.766,6.766,0,0,0,6.664,6.867c.081,0,.163,0,.244,0a6.993,6.993,0,0,0,7.172-6.809l0-.057A7.216,7.216,0,0,0-110.372-26.134Zm28.544,2.641A4.42,4.42,0,0,1-77.578-19a4.191,4.191,0,0,1-4.156,4.225h-.095A4.423,4.423,0,0,1-86.345-19a4.651,4.651,0,0,1,4.516-4.489m0-2.641A7.215,7.215,0,0,0-89-19a6.993,6.993,0,0,0,7.118,6.867h.056a6.766,6.766,0,0,0,6.907-6.622c0-.082,0-.163,0-.244a6.99,6.99,0,0,0-6.847-7.129Zm17.476,14h-3.188V-22.962h-4.251v-2.9h11.956v2.9h-4.516Zm5.535,0v-13.73h4.786a6.608,6.608,0,0,1,2.657.528,3.458,3.458,0,0,1,1.594,1.32,4.657,4.657,0,0,1,.532,2.376,4.546,4.546,0,0,1-.532,1.848,3.525,3.525,0,0,1-1.063,1.32,4.077,4.077,0,0,1-1.594.793l4.516,5.544h-3.457l-3.986-5.017h-.532v5.017Zm2.922-7.393h1.063a4.641,4.641,0,0,0,1.594-.262,1.819,1.819,0,0,0,.8-.792,1.724,1.724,0,0,0,.265-1.056,1.827,1.827,0,0,0-.532-1.584,3.667,3.667,0,0,0-2.126-.528h-1.061Zm14.305,7.392c-1.7,0-2.845-.206-3.719-1.056a5.5,5.5,0,0,1-1.329-3.96v-8.71h2.657v7.921a4.706,4.706,0,0,0,.532,2.64,2.578,2.578,0,0,0,3.651.067c.023-.022.045-.044.068-.067a4.546,4.546,0,0,0,.8-2.64v-7.921h2.657v8.713a5.509,5.509,0,0,1-1.329,3.96C-38.476-12.343-39.879-12.138-41.59-12.138Zm19.3,0v-13.73h2.657v5.808l5.047-5.808h3.454l-5.845,6.6,6.642,7.129h-3.719l-5.58-5.808v5.808Zm-8.237-2.641A4.22,4.22,0,0,0-26.305-19a4.22,4.22,0,0,0-4.216-4.224,4.092,4.092,0,0,0-2.657,1.056l-1.86-2.113a7.019,7.019,0,0,1,4.516-1.584,6.858,6.858,0,0,1,6.929,6.787,6.859,6.859,0,0,1-6.774,6.943h-.155a7.019,7.019,0,0,1-4.516-1.584l1.86-1.848A3.894,3.894,0,0,0-30.521-14.778Z" transform="translate(210.33 69.134)" fill="#fff"/>
  </g>
</svg>
