<svg xmlns="http://www.w3.org/2000/svg" width="20" height="20" viewBox="0 0 20 20">
  <g id="그룹_26172" data-name="그룹 26172" transform="translate(-1290 -229)">
    <g id="그룹_26171" data-name="그룹 26171" transform="translate(130 4)">
      <rect id="사각형_8682" data-name="사각형 8682" width="20" height="20" transform="translate(1160 225)" fill="none"/>
    </g>
    <path id="패스_69157" data-name="패스 69157" d="M146.508,333.314a8.965,8.965,0,0,1-4.209-1.272,14.736,14.736,0,0,1-6.681-7.532,6.517,6.517,0,0,1-.4-3.829,2.628,2.628,0,0,1,2.415-2.344.776.776,0,0,1,.816.47q1.033,1.861,2.1,3.7a.633.633,0,0,1-.111.866c-.409.4-.8.813-1.213,1.21a.657.657,0,0,0-.107.936,12.152,12.152,0,0,0,3.723,3.732.677.677,0,0,0,.974-.106c.374-.391.776-.757,1.145-1.154a.693.693,0,0,1,.974-.131c1.152.666,2.315,1.315,3.472,1.972a1.084,1.084,0,0,1,.561,1.537,2.956,2.956,0,0,1-2.239,1.784A9.766,9.766,0,0,1,146.508,333.314Z" transform="translate(1157.416 -86.82)" fill="#5786ed"/>
  </g>
</svg>
