<svg xmlns="http://www.w3.org/2000/svg" width="26" height="26" viewBox="0 0 26 26">
  <g id="그룹_26440" data-name="그룹 26440" transform="translate(-367 -419)">
    <rect id="사각형_8829" data-name="사각형 8829" width="26" height="26" transform="translate(367 419)" fill="none"/>
    <path id="패스_69261" data-name="패스 69261" d="M109.847-160.9a1.264,1.264,0,0,0-.4-.886,1.224,1.224,0,0,0-.9-.347h-.284l-1.541-2.78a1.284,1.284,0,0,0-1.063-.562h-3.467v-3.015a.331.331,0,0,0-.331-.331H93.735a.331.331,0,0,0-.333.329h0a.331.331,0,0,0,.329.333h7.8v11.288h-6.66a2.248,2.248,0,0,0-2.092-1.424h0a2.244,2.244,0,0,0-2.144,1.644h-1.4a.331.331,0,0,0-.333.329h0a.331.331,0,0,0,.329.333h1.314a2.241,2.241,0,0,0,2.243,2.189h.01a2.251,2.251,0,0,0,2.237-2.257c0-.052-.012-.1-.016-.151h6.846a.331.331,0,0,0,.331-.331v-8.274h3.466a.616.616,0,0,1,.5.247l1.627,2.928a.334.334,0,0,0,.29.171h.488a.617.617,0,0,1,.433.165.6.6,0,0,1,.189.427.73.73,0,0,1-.007.132v3.246a.626.626,0,0,1-.624.626h-.785a2.248,2.248,0,0,0-2.093-1.425h0a2.244,2.244,0,0,0-2.144,1.644h-.387a.331.331,0,0,0-.329.333h0a.331.331,0,0,0,.329.329h.3a2.247,2.247,0,0,0,2.243,2.189h.009a2.251,2.251,0,0,0,2.237-2.257c0-.052-.012-.1-.015-.151h.641a1.289,1.289,0,0,0,1.286-1.289v-3.2A1.136,1.136,0,0,0,109.847-160.9Zm-2.552,4.864a1.6,1.6,0,0,1-1.6,1.6h0a1.6,1.6,0,0,1-1.6-1.6h0a1.6,1.6,0,0,1,1.6-1.6h0a1.6,1.6,0,0,1,1.6,1.6Zm-12.908,0a1.6,1.6,0,0,1-1.6,1.6h0a1.6,1.6,0,0,1-1.6-1.6h0a1.6,1.6,0,0,1,1.6-1.6h0a1.6,1.6,0,0,1,1.6,1.6Zm11.961-4.275a.331.331,0,0,0,.331-.331v-.48a.329.329,0,0,0-.056-.184l-.956-1.432a.33.33,0,0,0-.459-.091.331.331,0,0,0-.092.459l.9,1.348v.048H103a.331.331,0,0,0-.333.329.331.331,0,0,0,.329.333h3.351ZM95.379-161.6H87.43a.331.331,0,0,1-.333-.329.331.331,0,0,1,.329-.333h7.952a.331.331,0,0,1,.333.329.331.331,0,0,1-.329.333h0Zm3.312-3.309H91.4a.331.331,0,0,1-.333-.329.331.331,0,0,1,.329-.333h7.29a.331.331,0,0,1,.333.329.331.331,0,0,1-.329.333Z" transform="translate(281.524 593.309)" fill="#fff"/>
  </g>
</svg>
