<svg xmlns="http://www.w3.org/2000/svg" width="20" height="20" viewBox="0 0 20 20">
  <g id="그룹_27272" data-name="그룹 27272" transform="translate(-765.321 -296.702)">
    <rect id="사각형_9045" data-name="사각형 9045" width="20" height="20" transform="translate(765.321 296.702)" fill="none"/>
    <path id="패스_69269" data-name="패스 69269" d="M284.3,411.608a7.243,7.243,0,0,0-7.234,7.234c0,6.492,6.2,9.048,6.468,9.154a2.067,2.067,0,0,0,1.535,0c.265-.105,6.467-2.661,6.467-9.154A7.242,7.242,0,0,0,284.3,411.608Zm.518,15.216a1.355,1.355,0,0,1-1.039.009,8.536,8.536,0,0,1-5.5-8.129,6.021,6.021,0,0,1,12.038,0A8.793,8.793,0,0,1,284.815,426.824Zm1.549-7.982a2.067,2.067,0,1,1-2.067-2.067A2.066,2.066,0,0,1,286.364,418.842Z" transform="translate(491.023 -113.174)" fill="#aac2f6"/>
  </g>
</svg>
